<?xml version="1.0" encoding="utf-8"?>
<!-- Generator: Adobe Illustrator 24.0.1, SVG Export Plug-In . SVG Version: 6.00 Build 0)  -->
<svg version="1.1" id="Layer_1" xmlns="http://www.w3.org/2000/svg" xmlns:xlink="http://www.w3.org/1999/xlink" x="0px" y="0px"
	 viewBox="0 0 52 52" style="enable-background:new 0 0 52 52;" xml:space="preserve">
<style type="text/css">
	.st0{fill:#E30613;}
	.st1{fill:#FFFFFF;}
</style>
<g>
	<circle class="st0" cx="26.2" cy="25.8" r="24.7"/>
	<g>
		<path class="st1" d="M39.2,16.4H13.7c-0.5,0-0.9-0.4-0.9-0.9v-0.6c0-0.5,0.4-0.9,0.9-0.9h25.5c0.5,0,0.9,0.4,0.9,0.9v0.6
			C40.1,16,39.7,16.4,39.2,16.4z"/>
		<polygon class="st1" points="22.3,14.6 23.3,12 29.7,12 30.9,14.8 32.9,14.8 30.9,10 21.9,10 20.1,14.6 		"/>
	</g>
	<g>
		<path class="st1" d="M15.3,17.3L17.1,38c0.1,1.3,1.2,2.3,2.4,2.3h14.1c1.3,0,2.3-1,2.4-2.3l1.7-20.7H15.3z M21.7,37
			C21.7,37,21.6,37,21.7,37c-0.5,0-0.9-0.3-0.9-0.8l-0.9-15.8c0-0.5,0.3-0.9,0.8-0.9c0.5,0,0.9,0.3,0.9,0.8l0.9,15.8
			C22.5,36.6,22.1,37,21.7,37z M27.3,36.1c0,0.5-0.4,0.8-0.8,0.8c-0.5,0-0.8-0.4-0.8-0.8V20.5c0-0.5,0.4-0.8,0.8-0.8
			c0.5,0,0.8,0.4,0.8,0.8V36.1z M32.3,36.2c0,0.4-0.4,0.8-0.8,0.8c0,0,0,0,0,0c-0.5,0-0.8-0.4-0.8-0.9l0.9-15.8
			c0-0.5,0.4-0.8,0.9-0.8c0.5,0,0.8,0.4,0.8,0.9L32.3,36.2z"/>
	</g>
</g>
</svg>
