<?xml version="1.0" encoding="utf-8"?>
<!-- Generator: Adobe Illustrator 24.0.1, SVG Export Plug-In . SVG Version: 6.00 Build 0)  -->
<svg version="1.1" id="Layer_1" xmlns="http://www.w3.org/2000/svg" xmlns:xlink="http://www.w3.org/1999/xlink" x="0px" y="0px"
	 viewBox="0 0 50 40" style="enable-background:new 0 0 50 40;" xml:space="preserve">
<style type="text/css">
	.st0{fill:none;stroke:#FFFFFF;stroke-miterlimit:10;}
	.st1{fill:none;stroke:#FFFFFF;stroke-linecap:round;stroke-linejoin:round;stroke-miterlimit:10;}
</style>
<g>
	<g>
		<circle class="st0" cx="25" cy="15.8" r="4.4"/>
		<path class="st0" d="M24.8,26c0.2-0.3,13.5-12.9,13.5-12.9s1.7-1.7,3-0.3c1.1,1.1,0.2,2.1-0.5,2.8s-11,10.6-11,10.6v10.3"/>
		<path class="st0" d="M25,26c-0.2-0.3-13.5-12.9-13.5-12.9s-1.7-1.7-3-0.3c-1.1,1.1-0.2,2.1,0.5,2.8s11,10.6,11,10.6v10.3"/>
	</g>
	<g>
		<line class="st1" x1="47.6" y1="24.5" x2="41.1" y2="24.5"/>
		<line class="st1" x1="8.9" y1="24.5" x2="2.4" y2="24.5"/>
	</g>
	<g>
		<line class="st1" x1="46.9" y1="18.6" x2="40.6" y2="20.3"/>
		<line class="st1" x1="9.4" y1="28.7" x2="3.1" y2="30.4"/>
	</g>
	<g>
		<line class="st1" x1="36.3" y1="4.9" x2="33.1" y2="10.6"/>
	</g>
	<g>
		<line class="st1" x1="30.9" y1="2.6" x2="29.2" y2="9"/>
	</g>
	<g>
		<line class="st1" x1="25" y1="1.9" x2="25" y2="8.4"/>
	</g>
	<g>
		<line class="st1" x1="19.1" y1="2.6" x2="20.8" y2="9"/>
	</g>
	<g>
		<line class="st1" x1="13.7" y1="4.9" x2="16.9" y2="10.6"/>
	</g>
	<g>
		<line class="st1" x1="3.1" y1="18.6" x2="9.4" y2="20.3"/>
		<line class="st1" x1="40.6" y1="28.7" x2="46.9" y2="30.4"/>
	</g>
</g>
</svg>
