<?xml version="1.0" encoding="utf-8"?>
<!-- Generator: Adobe Illustrator 24.0.1, SVG Export Plug-In . SVG Version: 6.00 Build 0)  -->
<svg version="1.1" id="Layer_1" xmlns="http://www.w3.org/2000/svg" xmlns:xlink="http://www.w3.org/1999/xlink" x="0px" y="0px"
	 viewBox="0 0 60 60" style="enable-background:new 0 0 60 60;" xml:space="preserve">
<style type="text/css">
	.st0{fill:#EA541E;}
	.st1{fill:#FFFFFF;}
	.st2{fill:none;stroke:#EA541E;stroke-width:2.7336;stroke-linecap:round;stroke-linejoin:round;stroke-miterlimit:10;}
	.st3{fill:none;stroke:#020203;stroke-width:1.1917;stroke-linecap:round;stroke-linejoin:round;stroke-miterlimit:10;}
	.st4{fill:#FFFFFF;stroke:#020203;stroke-width:1.1917;stroke-linecap:round;stroke-linejoin:round;stroke-miterlimit:10;}
	.st5{fill:none;stroke:#020203;stroke-width:1.0285;stroke-linecap:round;stroke-linejoin:round;stroke-miterlimit:10;}
	.st6{fill:#038341;}
	.st7{fill-rule:evenodd;clip-rule:evenodd;fill:#A1C319;}
	.st8{fill-rule:evenodd;clip-rule:evenodd;fill:#24224E;}
	.st9{fill:none;stroke:#020203;stroke-width:0.3011;stroke-miterlimit:10;}
</style>
<path class="st0" d="M3.6,60h52.8c1.9,0,3.5-1.6,3.5-3.5V3.6c0-1.9-1.6-3.5-3.5-3.5H3.6c-1.9,0-3.5,1.6-3.5,3.5v52.9
	C0.1,58.5,1.7,60,3.6,60z"/>
<ellipse transform="matrix(0.1735 -0.9848 0.9848 0.1735 -4.7458 54.2906)" class="st1" cx="30" cy="30" rx="26.7" ry="26.7"/>
<circle class="st2" cx="30" cy="30" r="28.2"/>
<g>
	<path class="st3" d="M30.6,52.6c0,0-1.2-7.2,4.7-10.9L34,37.1c0,0-3.6-0.6-5.2-2.1c-1.6-1.5-2.6-4.2,1-4.2s7.3,0,7.3,0
		s5.8,4.5,6.4,10.4"/>
	<path class="st3" d="M15.6,18.1c0,0-1.8-1-2.6-1.4c-0.7-0.4-2.1-0.5-2.8,0.7c-0.7,1.2-0.4,2.1,1.7,3.1s3.8,2.1,3.8,2.1"/>
	<path class="st3" d="M15.6,24.4c0,0-1.8-1-2.6-1.4c-0.7-0.4-2.1-0.5-2.8,0.7c-0.7,1.2-0.4,2.1,1.7,3.1c2,1,3.8,2.1,3.8,2.1"/>
	<path class="st3" d="M15.6,28.7c0,0-1.8-1-2.6-1.4c-0.7-0.4-2.1-0.5-2.8,0.7c-0.7,1.2-0.4,2.1,1.7,3.1c2,1,3.8,2.1,3.8,2.1"/>
	<path class="st3" d="M13.3,32.1c0,0-3.1,2.2-2.2,3.6s5.7,6.1,5.7,6.1s1.2,0.6,1.4-1.1c0.2-1.7-0.5-4.7-3.3-6.4"/>
	<path class="st3" d="M33,44.5H17.4c-0.9,0-1.6-0.7-1.6-1.6v-1.2"/>
	<path class="st3" d="M15.7,34.8V10.6c0-0.9,0.7-1.6,1.6-1.6h15.6c0.9,0,1.6,0.7,1.6,1.6v20"/>
	<path class="st4" d="M51.6,30.2H33.4c-0.9,0-1.5-0.7-1.5-1.5v-9.5c0-0.9,0.7-1.5,1.5-1.5h18.1c0.9,0,1.5,0.7,1.5,1.5v9.5
		C53.1,29.5,52.5,30.2,51.6,30.2z"/>
</g>
<path class="st5" d="M22.7,45.6c0,0,0.4,3.4,1,4.8c0.5,1.4,1.7,1.7,1.7,2.8"/>
<g>
	<path class="st6" d="M22.8,27.3h4c1.1,0,1.6-0.2,1.6-1.1v-9.8h2.2v9.8c0,1-0.4,1.8-0.9,2.3c-0.6,0.5-1.5,0.8-2.6,0.8h-4.2
		L22.8,27.3z"/>
	<path class="st6" d="M27.4,18.6h-4c-1.1,0-1.6,0.2-1.6,1.1v9.8h-2.2v-9.8c0-1,0.4-1.8,0.9-2.3c0.6-0.5,1.5-0.8,2.6-0.8h4.2
		L27.4,18.6z"/>
	<path class="st7" d="M23.2,19.3h3.8c0.4,0,0.6,0.3,0.6,0.6v6c0,0.4-0.3,0.6-0.6,0.6h-3.8c-0.4,0-0.6-0.3-0.6-0.6v-6
		C22.6,19.5,22.9,19.3,23.2,19.3z"/>
	<ellipse class="st8" cx="29.5" cy="13.9" rx="1.3" ry="1.3"/>
</g>
<g>
	<g>
		<g>
			<path class="st9" d="M46.8,23.2h0.7c0.1,0,0.1,0.1,0.1,0.1v1.1c0,0.1-0.1,0.1-0.1,0.1h-0.7c-0.1,0-0.1-0.1-0.1-0.1L46.8,23.2
				L46.8,23.2z"/>
		</g>
		<rect x="44.7" y="21.7" class="st9" width="1.2" height="1.2"/>
		<rect x="48.5" y="21.7" class="st9" width="1.2" height="1.2"/>
		<rect x="44.7" y="25.5" class="st9" width="1.2" height="1.2"/>
		<polyline class="st9" points="48.5,26.1 48.5,26.7 49.6,26.7 49.6,26.1 		"/>
		<polyline class="st9" points="49.1,25.5 49.6,25.5 49.6,23.8 		"/>
		<line class="st9" x1="48.6" y1="24" x2="48.6" y2="23.6"/>
		<line class="st9" x1="48.6" y1="25.5" x2="48.6" y2="24.3"/>
		<line class="st9" x1="45.6" y1="24.8" x2="45.6" y2="24.5"/>
		<polyline class="st9" points="46.3,25.5 47.5,25.5 47.5,26.6 46.6,26.6 		"/>
		<polyline class="st9" points="45.9,23.8 44.6,23.8 44.6,24.6 		"/>
		<polyline class="st9" points="46.6,21.7 47.4,21.7 47.4,22.5 		"/>
		<polyline class="st9" points="49.3,20.6 50.7,20.6 50.7,22 		"/>
		<polyline class="st9" points="45,20.6 43.6,20.6 43.6,22 		"/>
		<polyline class="st9" points="49.3,27.8 50.7,27.8 50.7,26.3 		"/>
		<polyline class="st9" points="45,27.8 43.6,27.8 43.6,26.3 		"/>
	</g>
	<path class="st9" d="M46.3,25.1v-1.9c0-0.3,0.2-0.4,0.4-0.4h0.7"/>
	<path class="st9" d="M47.9,22.7v1.9c0,0.3-0.2,0.4-0.4,0.4h-0.7"/>
</g>
</svg>
