<?xml version="1.0" encoding="utf-8"?>
<!-- Generator: Adobe Illustrator 24.0.1, SVG Export Plug-In . SVG Version: 6.00 Build 0)  -->
<svg version="1.1" id="Layer_1" xmlns="http://www.w3.org/2000/svg" xmlns:xlink="http://www.w3.org/1999/xlink" x="0px" y="0px"
	 viewBox="0 0 52 52" style="enable-background:new 0 0 52 52;" xml:space="preserve">
<style type="text/css">
	.st0{fill:#76BC21;}
</style>
<circle class="st0" cx="26.2" cy="25.8" r="24.7"/>
<g>
	<g>
		<path d="M42.9,25.2c0,0-4.4-3.5-8-6.8c-2.1-2.1-5-3.5-8.2-3.5c-2.9,0-5.5,1-7.5,2.8l0.1-0.2c-3.7,3.4-9,7.6-9,7.6s-1.1,1,0,2.2
			c3.8,4,7,6.3,8.1,7c2.1,2.2,5,3.5,8.2,3.5c3.3,0,6.3-1.4,8.4-3.7c1.3-0.9,4.3-3.1,7.8-6.8C44,26.2,42.9,25.2,42.9,25.2z
			 M26.3,34.8c-4.6,0-8.3-3.7-8.3-8.3s3.7-8.3,8.3-8.3s8.3,3.7,8.3,8.3S30.9,34.8,26.3,34.8z"/>
	</g>
	<g>
		<path d="M26.4,20.6c-0.4,0-0.8,0.1-1.2,0.1c1.2,0.4,2,1.5,2,2.9c0,1.7-1.4,3.1-3.1,3.1c-1.3,0-2.4-0.8-2.8-1.9
			c-0.1,0.3-0.1,0.7-0.1,1c0,2.8,2.3,5.2,5.2,5.2s5.2-2.3,5.2-5.2C31.6,22.9,29.3,20.6,26.4,20.6z"/>
	</g>
</g>
</svg>
