<?xml version="1.0" encoding="utf-8"?>
<!-- Generator: Adobe Illustrator 24.0.1, SVG Export Plug-In . SVG Version: 6.00 Build 0)  -->
<svg version="1.1" id="Layer_1" xmlns="http://www.w3.org/2000/svg" xmlns:xlink="http://www.w3.org/1999/xlink" x="0px" y="0px"
	 viewBox="0 0 335 71.4" style="enable-background:new 0 0 335 71.4;" xml:space="preserve">
<style type="text/css">
	.st0{fill:#FF5100;}
	.st1{fill:#FFFFFF;}
	.st2{fill:none;stroke:#FF5100;stroke-width:3.0888;stroke-linecap:round;stroke-linejoin:round;stroke-miterlimit:10;}
	.st3{fill:none;stroke:#000000;stroke-width:1.3466;stroke-linecap:round;stroke-linejoin:round;stroke-miterlimit:10;}
	.st4{fill:#FFFFFF;stroke:#000000;stroke-width:1.3466;stroke-linecap:round;stroke-linejoin:round;stroke-miterlimit:10;}
	.st5{fill:none;stroke:#000000;stroke-width:1.1622;stroke-linecap:round;stroke-linejoin:round;stroke-miterlimit:10;}
	.st6{fill:#008240;}
	.st7{fill-rule:evenodd;clip-rule:evenodd;fill:#A0C21A;}
	.st8{fill-rule:evenodd;clip-rule:evenodd;fill:#23204E;}
	.st9{fill-rule:evenodd;clip-rule:evenodd;fill:none;stroke:#000000;stroke-width:0.3402;stroke-miterlimit:10;}
	.st10{fill:none;stroke:#000000;stroke-width:0.3402;stroke-miterlimit:10;}
	.st11{fill:none;stroke:#FFFFFF;stroke-miterlimit:10;}
</style>
<path class="st0" d="M321.7,58.7H11.6c-5.5,0-10-4.5-10-10v-23c0-5.5,4.5-10,10-10h310.1c5.5,0,10,4.5,10,10v23
	C331.7,54.2,327.2,58.7,321.7,58.7z"/>
<g>
	<path class="st1" d="M32.8,32.9c0.5,0,0.9,0.2,1.3,0.5c0.3,0.3,0.5,0.7,0.5,1.2c0,0.5-0.2,0.9-0.5,1.2c-0.3,0.3-0.7,0.5-1.3,0.5
		c-0.5,0-0.9-0.2-1.3-0.5c-0.3-0.3-0.5-0.7-0.5-1.2c0-0.5,0.2-0.9,0.5-1.2C31.8,33,32.2,32.9,32.8,32.9z M31.2,47l0.3-9.6H34
		l0.3,9.6H31.2z"/>
	<path class="st1" d="M43.3,43.4c-1.4,0-2.6-0.3-3.6-0.9c-1-0.6-1.9-1.5-2.4-2.6c-0.6-1.1-0.9-2.4-0.9-3.8c0-1.5,0.3-2.8,0.9-3.9
		c0.6-1.1,1.4-2,2.4-2.5c1-0.6,2.3-0.9,3.6-0.9c0.8,0,1.6,0.1,2.4,0.3c0.8,0.2,1.5,0.5,2,0.9l-1.1,2.2c-0.9-0.5-1.9-0.7-3-0.7
		c-1.4,0-2.5,0.4-3.3,1.2s-1.2,1.9-1.2,3.4c0,1.5,0.4,2.6,1.2,3.4c0.8,0.8,1.9,1.2,3.2,1.2c1.1,0,2.2-0.3,3.4-0.9l1.1,2.2
		c-0.6,0.4-1.3,0.7-2.2,1C45,43.3,44.2,43.4,43.3,43.4z"/>
	<path class="st1" d="M49.8,43.1V32.9H52l0.1,2.1c0.3-0.7,0.6-1.3,1.1-1.7c0.5-0.4,1-0.6,1.7-0.6c0.7,0,1.3,0.2,1.8,0.7l-1.2,2.1
		c-0.3-0.1-0.6-0.2-0.9-0.2c-0.7,0-1.2,0.3-1.5,0.9c-0.4,0.6-0.5,1.3-0.5,2.3v4.6H49.8z"/>
	<path class="st1" d="M62.1,43.4c-1.1,0-2-0.2-2.8-0.7c-0.8-0.4-1.4-1.1-1.8-1.9c-0.4-0.8-0.7-1.8-0.7-2.8c0-1.1,0.2-2,0.6-2.8
		c0.4-0.8,1-1.5,1.7-1.9s1.6-0.7,2.5-0.7c0.9,0,1.7,0.2,2.4,0.6c0.7,0.4,1.2,1,1.6,1.7c0.4,0.7,0.6,1.6,0.6,2.6c0,0.3,0,0.5,0,0.7
		c0,0.2-0.1,0.5-0.1,0.7h-6.7c0.2,0.6,0.5,1.1,1,1.5c0.5,0.3,1.1,0.5,1.8,0.5c0.9,0,1.8-0.2,2.7-0.7l0.9,1.9c-0.5,0.3-1,0.6-1.7,0.8
		C63.6,43.3,62.9,43.4,62.1,43.4z M61.8,34.9c-0.6,0-1.1,0.2-1.5,0.6c-0.4,0.4-0.7,0.9-0.8,1.7h4.4C63.7,35.6,63,34.9,61.8,34.9z"/>
	<path class="st1" d="M70.8,43.4c-0.9,0-1.7-0.3-2.3-0.9c-0.6-0.6-0.9-1.4-0.9-2.3c0-1,0.4-1.9,1.2-2.5c0.8-0.6,1.9-0.9,3.3-0.9
		c0.6,0,1.2,0.1,1.9,0.2c-0.1-1.3-0.9-2-2.3-2c-0.9,0-1.7,0.3-2.6,0.8l-0.9-1.9c0.6-0.4,1.3-0.7,2-0.9c0.7-0.2,1.4-0.3,2-0.3
		c3,0,4.4,1.6,4.4,4.7v5.8h-2.2l-0.1-1.7c-0.3,0.7-0.8,1.2-1.4,1.5C72.3,43.2,71.6,43.4,70.8,43.4z M70.3,40c0,0.3,0.1,0.6,0.4,0.8
		c0.3,0.2,0.6,0.3,1,0.3c0.7,0,1.2-0.2,1.6-0.6s0.6-1,0.6-1.6v-0.1c-0.5-0.1-1.1-0.1-1.6-0.1c-0.7,0-1.2,0.1-1.6,0.3
		S70.3,39.5,70.3,40z"/>
	<path class="st1" d="M87.1,43.3c-2.3,0-3.4-1.4-3.4-4.2v-3.8h-1.2v-2.4h1.2v-2.7h2.7v2.7h2.7v2.4h-2.7V39c0,1.2,0.4,1.8,1.3,1.8
		c0.4,0,0.7-0.1,1.1-0.3l0.9,1.9C89,43,88.1,43.3,87.1,43.3z"/>
	<path class="st1" d="M94.4,43.4c-2.5,0-3.7-1.6-3.7-4.9v-5.6h2.7v5.6c0,1.6,0.6,2.4,1.8,2.4c0.7,0,1.2-0.2,1.6-0.7
		c0.4-0.5,0.6-1.1,0.6-2v-5.3h2.7v10.2h-2.2l-0.1-1.8c-0.3,0.7-0.7,1.2-1.2,1.5S95.2,43.4,94.4,43.4z"/>
	<path class="st1" d="M110.6,43.3c-2.3,0-3.4-1.4-3.4-4.2v-3.8h-1.2v-2.4h1.2v-2.7h2.7v2.7h2.7v2.4h-2.7V39c0,1.2,0.4,1.8,1.3,1.8
		c0.4,0,0.7-0.1,1.1-0.3l0.9,1.9C112.6,43,111.7,43.3,110.6,43.3z"/>
	<path class="st1" d="M117.2,43.4c-0.9,0-1.7-0.3-2.3-0.9c-0.6-0.6-0.9-1.4-0.9-2.3c0-1,0.4-1.9,1.2-2.5c0.8-0.6,1.9-0.9,3.3-0.9
		c0.6,0,1.2,0.1,1.9,0.2c-0.1-1.3-0.9-2-2.3-2c-0.9,0-1.7,0.3-2.6,0.8l-0.9-1.9c0.6-0.4,1.3-0.7,2-0.9s1.4-0.3,2-0.3
		c3,0,4.4,1.6,4.4,4.7v5.8h-2.2l-0.1-1.7c-0.3,0.7-0.8,1.2-1.4,1.5C118.6,43.2,117.9,43.4,117.2,43.4z M116.7,40
		c0,0.3,0.1,0.6,0.4,0.8c0.3,0.2,0.6,0.3,1,0.3c0.7,0,1.2-0.2,1.6-0.6c0.4-0.4,0.6-1,0.6-1.6v-0.1c-0.5-0.1-1.1-0.1-1.6-0.1
		c-0.7,0-1.2,0.1-1.6,0.3C116.8,39.2,116.7,39.5,116.7,40z"/>
	<path class="st1" d="M125.4,43.1V32.9h2.2l0.1,2.1c0.3-0.7,0.6-1.3,1.1-1.7c0.5-0.4,1-0.6,1.7-0.6c0.7,0,1.3,0.2,1.8,0.7l-1.2,2.1
		c-0.3-0.1-0.6-0.2-0.9-0.2c-0.7,0-1.2,0.3-1.5,0.9c-0.4,0.6-0.5,1.3-0.5,2.3v4.6H125.4z"/>
	<path class="st1" d="M132.9,47.4c-0.5,0-0.9-0.1-1.4-0.2c-0.5-0.1-0.9-0.3-1.2-0.6l1-2c0.4,0.3,0.8,0.4,1.2,0.4s0.7-0.2,0.9-0.5
		c0.2-0.3,0.3-0.8,0.3-1.5V32.9h2.7V43C136.4,45.9,135.2,47.4,132.9,47.4z M135.1,31.6c-0.5,0-0.9-0.1-1.2-0.4
		c-0.3-0.3-0.5-0.7-0.5-1.1c0-0.5,0.2-0.9,0.5-1.2s0.7-0.4,1.2-0.4c0.5,0,0.9,0.1,1.2,0.4s0.5,0.7,0.5,1.2c0,0.5-0.2,0.9-0.5,1.1
		C135.9,31.5,135.5,31.6,135.1,31.6z"/>
	<path class="st1" d="M143.6,43.4c-1.1,0-2-0.2-2.8-0.7c-0.8-0.4-1.4-1.1-1.8-1.9s-0.6-1.8-0.6-2.8c0-1.1,0.2-2,0.6-2.8
		c0.4-0.8,1-1.5,1.7-1.9c0.7-0.5,1.6-0.7,2.6-0.7c0.9,0,1.7,0.2,2.4,0.6c0.7,0.4,1.2,1,1.6,1.7c0.4,0.7,0.6,1.6,0.6,2.6
		c0,0.3,0,0.5,0,0.7c0,0.2-0.1,0.5-0.1,0.7H141c0.2,0.6,0.5,1.1,1,1.5s1.1,0.5,1.9,0.5c0.9,0,1.8-0.2,2.7-0.7l0.9,1.9
		c-0.5,0.3-1,0.6-1.7,0.8C145,43.3,144.3,43.4,143.6,43.4z M143.3,34.9c-0.6,0-1.1,0.2-1.6,0.6c-0.4,0.4-0.7,0.9-0.8,1.7h4.4
		C145.2,35.6,144.5,34.9,143.3,34.9z"/>
	<path class="st1" d="M153.3,43.3c-2.3,0-3.4-1.4-3.4-4.2v-3.8h-1.2v-2.4h1.2v-2.7h2.7v2.7h2.7v2.4h-2.7V39c0,1.2,0.4,1.8,1.3,1.8
		c0.4,0,0.7-0.1,1.1-0.3l0.9,1.9C155.2,43,154.3,43.3,153.3,43.3z"/>
	<path class="st1" d="M159.8,43.4c-0.9,0-1.7-0.3-2.3-0.9c-0.6-0.6-0.9-1.4-0.9-2.3c0-1,0.4-1.9,1.2-2.5c0.8-0.6,1.9-0.9,3.3-0.9
		c0.6,0,1.2,0.1,1.9,0.2c-0.1-1.3-0.9-2-2.3-2c-0.9,0-1.7,0.3-2.6,0.8l-0.9-1.9c0.6-0.4,1.3-0.7,2-0.9s1.4-0.3,2-0.3
		c3,0,4.4,1.6,4.4,4.7v5.8h-2.2l-0.1-1.7c-0.3,0.7-0.8,1.2-1.4,1.5C161.3,43.2,160.6,43.4,159.8,43.4z M159.3,40
		c0,0.3,0.1,0.6,0.4,0.8c0.3,0.2,0.6,0.3,1,0.3c0.7,0,1.2-0.2,1.6-0.6c0.4-0.4,0.6-1,0.6-1.6v-0.1c-0.5-0.1-1.1-0.1-1.6-0.1
		c-0.7,0-1.2,0.1-1.6,0.3C159.5,39.2,159.3,39.5,159.3,40z"/>
	<path class="st1" d="M174.8,43.4c-0.9,0-1.7-0.3-2.3-0.9c-0.6-0.6-0.9-1.4-0.9-2.3c0-1,0.4-1.9,1.2-2.5c0.8-0.6,1.9-0.9,3.3-0.9
		c0.6,0,1.2,0.1,1.9,0.2c-0.1-1.3-0.9-2-2.3-2c-0.9,0-1.7,0.3-2.6,0.8l-0.9-1.9c0.6-0.4,1.3-0.7,2-0.9s1.4-0.3,2-0.3
		c3,0,4.4,1.6,4.4,4.7v5.8h-2.2l-0.1-1.7c-0.3,0.7-0.8,1.2-1.4,1.5C176.3,43.2,175.6,43.4,174.8,43.4z M174.3,40
		c0,0.3,0.1,0.6,0.4,0.8c0.3,0.2,0.6,0.3,1,0.3c0.7,0,1.2-0.2,1.6-0.6c0.4-0.4,0.6-1,0.6-1.6v-0.1c-0.5-0.1-1.1-0.1-1.6-0.1
		c-0.7,0-1.2,0.1-1.6,0.3C174.5,39.2,174.3,39.5,174.3,40z"/>
	<path class="st1" d="M183.1,43.1V28.5h2.7v6c0.3-0.6,0.7-1,1.2-1.4c0.5-0.3,1.1-0.5,1.8-0.5c1.3,0,2.2,0.4,2.9,1.2s1,2,1,3.7v5.6
		H190v-5.6c0-1.6-0.6-2.4-1.9-2.4c-0.7,0-1.2,0.2-1.7,0.7c-0.4,0.5-0.6,1.1-0.6,2v5.3H183.1z"/>
	<path class="st1" d="M199.8,43.4c-1,0-2-0.2-2.8-0.7c-0.8-0.4-1.4-1.1-1.9-1.9c-0.4-0.8-0.7-1.8-0.7-2.8c0-1.1,0.2-2,0.7-2.8
		c0.4-0.8,1.1-1.4,1.9-1.9c0.8-0.4,1.7-0.7,2.8-0.7c1.1,0,2,0.2,2.8,0.7s1.4,1.1,1.8,1.9c0.4,0.8,0.7,1.8,0.7,2.8
		c0,1.1-0.2,2-0.7,2.8c-0.4,0.8-1.1,1.4-1.8,1.9S200.8,43.4,199.8,43.4z M199.8,40.9c0.7,0,1.3-0.3,1.8-0.8s0.7-1.2,0.7-2.1
		s-0.2-1.6-0.7-2.1s-1.1-0.8-1.8-0.8c-0.7,0-1.3,0.3-1.8,0.8c-0.5,0.5-0.7,1.2-0.7,2.1s0.2,1.6,0.7,2.1
		C198.4,40.6,199,40.9,199.8,40.9z"/>
	<path class="st1" d="M207,43.1V32.9h2.2l0.1,2.1c0.3-0.7,0.6-1.3,1.1-1.7c0.5-0.4,1-0.6,1.7-0.6c0.7,0,1.3,0.2,1.8,0.7l-1.2,2.1
		c-0.3-0.1-0.6-0.2-0.9-0.2c-0.7,0-1.2,0.3-1.5,0.9c-0.4,0.6-0.5,1.3-0.5,2.3v4.6H207z"/>
	<path class="st1" d="M217.4,43.4c-0.9,0-1.7-0.3-2.3-0.9c-0.6-0.6-0.9-1.4-0.9-2.3c0-1,0.4-1.9,1.2-2.5c0.8-0.6,1.9-0.9,3.3-0.9
		c0.6,0,1.2,0.1,1.9,0.2c-0.1-1.3-0.9-2-2.3-2c-0.9,0-1.7,0.3-2.6,0.8l-0.9-1.9c0.6-0.4,1.3-0.7,2-0.9c0.7-0.2,1.4-0.3,2-0.3
		c3,0,4.4,1.6,4.4,4.7v5.8h-2.2l-0.1-1.7c-0.3,0.7-0.8,1.2-1.4,1.5C218.9,43.2,218.2,43.4,217.4,43.4z M216.9,40
		c0,0.3,0.1,0.6,0.4,0.8c0.3,0.2,0.6,0.3,1,0.3c0.7,0,1.2-0.2,1.6-0.6s0.6-1,0.6-1.6v-0.1c-0.5-0.1-1.1-0.1-1.6-0.1
		c-0.7,0-1.2,0.1-1.6,0.3S216.9,39.5,216.9,40z"/>
	<path class="st1" d="M227.1,43.2c-0.5,0-0.9-0.2-1.3-0.5c-0.3-0.3-0.5-0.7-0.5-1.2c0-0.5,0.2-0.9,0.5-1.2c0.3-0.3,0.7-0.5,1.3-0.5
		c0.5,0,0.9,0.2,1.3,0.5c0.3,0.3,0.5,0.7,0.5,1.2c0,0.5-0.2,0.9-0.5,1.2C228.1,43,227.6,43.2,227.1,43.2z M225.9,38.7l-0.3-9.6h3.1
		l-0.3,9.6H225.9z"/>
</g>
<circle class="st1" cx="267.9" cy="36" r="30.2"/>
<circle class="st2" cx="267.9" cy="36" r="31.9"/>
<g>
	<path class="st3" d="M268.6,61.6c0,0-1.4-8.1,5.3-12.3l-1.4-5.2c0,0-4.1-0.7-5.9-2.4s-2.9-4.8,1.1-4.8s8.3,0,8.3,0
		s6.5,5.1,7.2,11.7"/>
	<path class="st3" d="M251.7,22.6c0,0-2-1.1-2.9-1.6c-0.8-0.5-2.4-0.6-3.2,0.8c-0.8,1.4-0.4,2.4,1.9,3.5s4.3,2.4,4.3,2.4"/>
	<path class="st3" d="M251.7,29.7c0,0-2-1.1-2.9-1.6c-0.8-0.5-2.4-0.6-3.2,0.8c-0.8,1.4-0.4,2.4,1.9,3.5c2.3,1.1,4.3,2.4,4.3,2.4"/>
	<path class="st3" d="M251.7,34.6c0,0-2-1.1-2.9-1.6c-0.8-0.5-2.4-0.6-3.2,0.8c-0.8,1.4-0.4,2.4,1.9,3.5c2.3,1.1,4.3,2.4,4.3,2.4"/>
	<path class="st3" d="M249.1,38.4c0,0-3.5,2.5-2.5,4.1c1,1.6,6.4,6.9,6.4,6.9s1.3,0.7,1.6-1.2c0.2-1.9-0.6-5.3-3.7-7.2"/>
	<path class="st3" d="M271.3,52.4h-17.6c-1,0-1.8-0.8-1.8-1.8v-1.4"/>
	<path class="st3" d="M251.8,41.4V14.1c0-1,0.8-1.8,1.8-1.8h17.6c1,0,1.8,0.8,1.8,1.8v22.6"/>
	<path class="st4" d="M292.3,36.3h-20.5c-1,0-1.7-0.8-1.7-1.7V23.9c0-1,0.8-1.7,1.7-1.7h20.5c1,0,1.7,0.8,1.7,1.7v10.7
		C294,35.5,293.3,36.3,292.3,36.3z"/>
</g>
<path class="st5" d="M259.7,53.7c0,0,0.5,3.8,1.1,5.4s1.9,1.9,1.9,3.2"/>
<g>
	<path class="st6" d="M259.8,33h4.5c1.2,0,1.8-0.2,1.8-1.2l0-11.1h2.5v11.1c0,1.1-0.4,2-1,2.6c-0.7,0.6-1.7,0.9-2.9,0.9h-4.8
		L259.8,33z"/>
	<path class="st6" d="M265,23.1h-4.5c-1.2,0-1.8,0.2-1.8,1.2l0,11.1h-2.5V24.3c0-1.1,0.4-2,1-2.6c0.7-0.6,1.7-0.9,2.9-0.9h4.8
		L265,23.1z"/>
	<path class="st7" d="M260.3,23.9h4.3c0.4,0,0.7,0.3,0.7,0.7v6.8c0,0.4-0.3,0.7-0.7,0.7h-4.3c-0.4,0-0.7-0.3-0.7-0.7v-6.8
		C259.6,24.2,259.9,23.9,260.3,23.9z"/>
	<ellipse class="st8" cx="267.4" cy="17.8" rx="1.5" ry="1.5"/>
</g>
<g>
	<g>
		<g>
			<path class="st9" d="M286.9,28.4h0.8c0.1,0,0.1,0.1,0.1,0.1v1.2c0,0.1-0.1,0.1-0.1,0.1h-0.8c-0.1,0-0.1-0.1-0.1-0.1v-1.2
				C286.8,28.5,286.9,28.4,286.9,28.4z"/>
		</g>
		<rect x="284.5" y="26.7" class="st9" width="1.3" height="1.3"/>
		<rect x="288.8" y="26.7" class="st9" width="1.3" height="1.3"/>
		<rect x="284.5" y="31" class="st9" width="1.3" height="1.3"/>
		<polyline class="st9" points="288.8,31.6 288.8,32.3 290.1,32.3 290.1,31.6 		"/>
		<polyline class="st9" points="289.5,30.9 290.1,30.9 290.1,29 		"/>
		<line class="st9" x1="288.9" y1="29.2" x2="288.9" y2="28.8"/>
		<line class="st9" x1="288.9" y1="30.9" x2="288.9" y2="29.6"/>
		<line class="st9" x1="285.6" y1="30.2" x2="285.6" y2="29.8"/>
		<polyline class="st9" points="286.3,30.9 287.7,30.9 287.7,32.2 286.7,32.2 		"/>
		<polyline class="st9" points="285.9,29 284.4,29 284.4,29.9 		"/>
		<polyline class="st9" points="286.7,26.7 287.6,26.7 287.6,27.6 		"/>
		<polyline class="st9" points="289.7,25.4 291.3,25.4 291.3,27 		"/>
		<polyline class="st9" points="284.9,25.4 283.3,25.4 283.3,27 		"/>
		<polyline class="st9" points="289.7,33.5 291.3,33.5 291.3,31.9 		"/>
		<polyline class="st9" points="284.9,33.5 283.3,33.5 283.3,31.9 		"/>
	</g>
	<path class="st10" d="M286.4,30.5v-2.2c0-0.3,0.2-0.5,0.5-0.5h0.8"/>
	<path class="st10" d="M288.2,27.8V30c0,0.3-0.2,0.5-0.5,0.5h-0.8"/>
</g>
<line class="st11" x1="26.3" y1="45" x2="23.2" y2="58.8"/>
<line class="st11" x1="22.2" y1="45" x2="19.1" y2="58.8"/>
<line class="st11" x1="18.1" y1="45" x2="15" y2="58.8"/>
<line class="st11" x1="14" y1="45" x2="10.9" y2="58.8"/>
<line class="st11" x1="320.2" y1="16" x2="317.1" y2="29.8"/>
<line class="st11" x1="316.1" y1="16" x2="313" y2="29.8"/>
<line class="st11" x1="312" y1="16" x2="308.9" y2="29.8"/>
<line class="st11" x1="307.9" y1="16" x2="304.8" y2="29.8"/>
</svg>
