<?xml version="1.0" encoding="utf-8"?>
<!-- Generator: Adobe Illustrator 24.0.1, SVG Export Plug-In . SVG Version: 6.00 Build 0)  -->
<svg version="1.1" id="Layer_1" xmlns="http://www.w3.org/2000/svg" xmlns:xlink="http://www.w3.org/1999/xlink" x="0px" y="0px"
	 viewBox="0 0 50 50" style="enable-background:new 0 0 50 50;" xml:space="preserve">
<style type="text/css">
	.st0{fill:none;stroke:#000000;stroke-width:1.9187;stroke-linecap:round;stroke-linejoin:round;stroke-miterlimit:10;}
</style>
<path d="M14.6,25.8c0,0,3.6,3,8.5,2.1l5,5.2l5.2-4.1c0,0,9.4,0.7,9.4,6.8s0,11,0,11h-7.2v-5.5h-1.4V47H19.5v-9.4
	c0,0-7.7-2.2-11.1-5.8c0,0,3.5-1.2,4.4-3.8c0,0-3.1,3.1-6.4,2.8s-5.4-2.8-4.5-5.1s3.6-5.1,4.5-5.5c0.9-0.3,3.7-0.1,5,1.4
	c1.3,1.5,2.7,3.3,2.2,4.5L14.6,25.8z"/>
<path d="M31.3,6.2c-0.8,0-1.5,0.1-2.2,0.3C30.9,8.4,32,11,32,13.8c0,4.4-2.7,8.2-6.5,9.9c1.6,1.2,3.6,1.9,5.8,1.9
	c5.3,0,9.7-4.3,9.7-9.7S36.6,6.2,31.3,6.2z"/>
<path class="st0" d="M10.4,21.2l2-2c-1-1.6-1.5-3.4-1.5-5.4c0-5.7,4.6-10.3,10.3-10.3c3,0,5.6,1.3,7.5,3.3c1.7,1.8,2.8,4.3,2.8,7
	c0,4.2-2.6,7.9-6.2,9.5c-1.3,0.5-2.6,0.8-4.1,0.8c-1.7,0-3.4-0.4-4.8-1.2l-3.3,3.3"/>
<circle cx="20.9" cy="11.2" r="3.5"/>
<path d="M15.1,19.6c0,0,0.8-3.7,4-3.7l1.7,1.7l2-2c0,0,3.8,0.9,3.8,3.9L15.1,19.6z"/>
</svg>
