<?xml version="1.0" encoding="utf-8"?>
<!-- Generator: Adobe Illustrator 24.0.1, SVG Export Plug-In . SVG Version: 6.00 Build 0)  -->
<svg version="1.1" id="Layer_1" xmlns="http://www.w3.org/2000/svg" xmlns:xlink="http://www.w3.org/1999/xlink" x="0px" y="0px"
	 viewBox="0 0 34 34" style="enable-background:new 0 0 34 34;" xml:space="preserve">
<style type="text/css">
	.st0{fill:none;stroke:#000000;stroke-width:1.2005;stroke-miterlimit:10;}
	.st1{fill:none;stroke:#FFFFFF;stroke-width:0.25;stroke-miterlimit:10;}
	.st2{fill:none;stroke:#FFFFFF;stroke-width:0.25;stroke-linecap:round;stroke-linejoin:round;stroke-miterlimit:10;}
</style>
<g>
	<circle class="st0" cx="12.8" cy="13.1" r="11.8"/>
	<circle class="st0" cx="12.8" cy="13.1" r="8.9"/>
	<path class="st0" d="M23.1,19.6l9.3,7.9c1,1,1,2.7,0,3.8L31.7,32c-1,1-2.7,1-3.8,0l-8.1-9.1"/>
</g>
<g>
	<path d="M9.6,12.9c0,0,0.1,3.1,3.1,3.1s3.2-3.2,3.2-3.2s0.9-0.3,0.6-1.3c0,0,1-4.1-1.1-4.4c0,0-0.4-1.3-1.8-1.1
		C12.3,6.2,10,6.4,9.3,7.8s-0.8,2.4-0.4,3.7C8.9,11.4,8.6,12.6,9.6,12.9z"/>
	<path class="st1" d="M10.3,10.1c0,0,1.1-0.6,1.8-0.7c0.8-0.1,2,0.4,2.7-0.9c0,0-0.1,0.6,0.3,0.8c0.3,0.2,0.5,0.3,0.5,1.1"/>
	<path class="st2" d="M11.7,13.9c0,0,0.3,0.4,1,0.4c0.7,0,1-0.4,1-0.4"/>
</g>
<path d="M9.8,16.9l2.7,2.9l2.9-3c0,0,3-0.1,4.6,0.8c0,0-2.8,4.4-7.1,4.4S5.3,19.5,5,18.1C5,18.1,7.1,16.8,9.8,16.9z"/>
<path d="M11,15.4c0,0-0.1,1.1,0.1,1.3c0.1,0.1,1.4,1.4,1.4,1.4l1.8-1.5l0.1-1.2H11z"/>
</svg>
