<?xml version="1.0" encoding="utf-8"?>
<!-- Generator: Adobe Illustrator 24.0.1, SVG Export Plug-In . SVG Version: 6.00 Build 0)  -->
<svg version="1.1" id="Layer_1" xmlns="http://www.w3.org/2000/svg" xmlns:xlink="http://www.w3.org/1999/xlink" x="0px" y="0px"
	 viewBox="0 0 35 35" style="enable-background:new 0 0 35 35;" xml:space="preserve">
<style type="text/css">
	.st0{fill:#96B8BD;}
	.st1{fill:none;stroke:#FEFEFE;stroke-width:1.0051;stroke-linecap:round;stroke-linejoin:round;stroke-miterlimit:10;}
	.st2{fill:#FEFEFE;}
	.st3{fill-rule:evenodd;clip-rule:evenodd;fill:#FFFFFF;}
</style>
<g>
	<g>
		<path class="st0" d="M27,29.7V5.1c0-1.6-1.3-2.9-2.9-2.9H11.6c-1.6,0-2.9,1.3-2.9,2.9v25c0,1.6,1.3,2.9,2.9,2.9h12.9
			c1.4,0,2.6-1.1,2.6-2.6"/>
		<line class="st1" x1="16.1" y1="29.4" x2="19.6" y2="29.4"/>
		<circle class="st2" cx="18" cy="5" r="0.8"/>
	</g>
	<g>
		<path class="st3" d="M23.7,18.7c-0.3-0.1-1.7-0.9-2-1c-0.3-0.1-0.5-0.1-0.7,0.2c-0.2,0.3-0.7,1-0.9,1.2c-0.2,0.2-0.3,0.2-0.6,0.1
			c-0.3-0.1-1.2-0.5-2.3-1.5c-0.9-0.8-1.4-1.8-1.6-2.1c-0.2-0.3,0-0.5,0.1-0.6c0.1-0.1,0.3-0.3,0.4-0.5c0.1-0.2,0.2-0.3,0.3-0.5
			c0.1-0.2,0-0.4,0-0.5c-0.1-0.1-0.7-1.6-0.9-2.2c-0.2-0.6-0.5-0.5-0.7-0.5c-0.2,0-0.4,0-0.6,0c-0.2,0-0.5,0.1-0.8,0.4
			c-0.3,0.3-1,1-1,2.5c0,1.5,1,2.9,1.2,3.1c0.1,0.2,2,3.2,5,4.5c0.7,0.3,1.2,0.5,1.7,0.6c0.7,0.2,1.3,0.2,1.8,0.1
			c0.6-0.1,1.7-0.7,2-1.4c0.2-0.7,0.2-1.3,0.2-1.4C24.2,18.9,24,18.8,23.7,18.7"/>
	</g>
</g>
</svg>
