<?xml version="1.0" encoding="utf-8"?>
<!-- Generator: Adobe Illustrator 24.0.1, SVG Export Plug-In . SVG Version: 6.00 Build 0)  -->
<svg version="1.1" id="Layer_1" xmlns="http://www.w3.org/2000/svg" xmlns:xlink="http://www.w3.org/1999/xlink" x="0px" y="0px"
	 viewBox="0 0 50 50" style="enable-background:new 0 0 50 50;" xml:space="preserve">
<style type="text/css">
	.st0{fill:none;stroke:#000000;stroke-width:0.75;stroke-miterlimit:10;}
</style>
<g>
	<g>
		<path class="st0" d="M8.8,29.3c2.1,0,2.1,2,4.2,2c2.1,0,2.1-2,4.2-2c2.1,0,2.1,2,4.2,2c2.1,0,2.1-2,4.2-2c2.1,0,2.1,2,4.2,2
			c2.1,0,2.1-2,4.2-2c2.1,0,2.1,2,4.2,2c2.1,0,2.1-2,4.2-2"/>
	</g>
	<g>
		<path class="st0" d="M14.5,33.9c2.2,0,2.2,1.8,4.5,1.8c2.2,0,2.2-1.8,4.5-1.8c2.2,0,2.2,1.8,4.5,1.8c2.2,0,2.2-1.8,4.5-1.8
			c2.2,0,2.2,1.8,4.5,1.8"/>
	</g>
	<g>
		<path class="st0" d="M17.2,38.4c1.7,0,1.7,1.4,3.4,1.4c1.7,0,1.7-1.4,3.4-1.4c1.7,0,1.7,1.4,3.4,1.4c1.7,0,1.7-1.4,3.4-1.4
			c1.7,0,1.7,1.4,3.4,1.4"/>
	</g>
	<path class="st0" d="M34.6,29c0.7-1.3,1-2.8,1-4.4c0-5.4-4.4-9.8-9.8-9.8s-9.8,4.4-9.8,9.8c0,1.7,0.4,3.2,1.2,4.6"/>
	<path class="st0" d="M25.7,19.3c-3,0-5.5,2.5-5.5,5.5"/>
	<g>
		<line class="st0" x1="39.2" y1="24.7" x2="43.1" y2="24.7"/>
		<line class="st0" x1="8.7" y1="24.7" x2="12.6" y2="24.7"/>
	</g>
	<g>
		<line class="st0" x1="37.4" y1="18" x2="40.8" y2="16"/>
	</g>
	<g>
		<line class="st0" x1="32.6" y1="13.1" x2="34.5" y2="9.7"/>
	</g>
	<g>
		<line class="st0" x1="25.9" y1="11.4" x2="25.9" y2="7.4"/>
	</g>
	<g>
		<line class="st0" x1="19.3" y1="13.1" x2="17.3" y2="9.7"/>
	</g>
	<g>
		<line class="st0" x1="14.4" y1="18" x2="11" y2="16"/>
	</g>
</g>
</svg>
