<?xml version="1.0" encoding="utf-8"?>
<!-- Generator: Adobe Illustrator 24.0.1, SVG Export Plug-In . SVG Version: 6.00 Build 0)  -->
<svg version="1.1" id="Layer_1" xmlns="http://www.w3.org/2000/svg" xmlns:xlink="http://www.w3.org/1999/xlink" x="0px" y="0px"
	 viewBox="0 0 28 28" style="enable-background:new 0 0 28 28;" xml:space="preserve">
<style type="text/css">
	.st0{fill:#FFFFFF;}
	.st1{fill:none;stroke:#FFFFFF;stroke-width:0.8;stroke-miterlimit:10;}
</style>
<g>
	<g>
		<path class="st0" d="M13.8,0.2c-4.4,0-8,3.6-8,8c0,4.5,3.6,7,5.8,10.7c1.7,2.8,2.2,5.4,2.2,5.4s0.5-2.6,2.2-5.5
			c2.2-3.7,5.8-5.6,5.8-10.6C21.7,3.8,18.2,0.2,13.8,0.2z M13.8,11.1c-1.5,0-2.8-1.2-2.8-2.8c0-1.5,1.2-2.8,2.8-2.8s2.8,1.2,2.8,2.8
			C16.5,9.9,15.3,11.1,13.8,11.1z"/>
	</g>
	<path class="st1" d="M16.5,22.1c2.9,0.4,5,1.5,5,2.7c0,1.6-3.4,2.9-7.7,2.9s-7.7-1.3-7.7-2.9c0-1.2,2.1-2.3,5-2.7"/>
</g>
</svg>
