<?xml version="1.0" encoding="utf-8"?>
<!-- Generator: Adobe Illustrator 24.0.1, SVG Export Plug-In . SVG Version: 6.00 Build 0)  -->
<svg version="1.1" id="Layer_1" xmlns="http://www.w3.org/2000/svg" xmlns:xlink="http://www.w3.org/1999/xlink" x="0px" y="0px"
	 viewBox="0 0 35 35" style="enable-background:new 0 0 35 35;" xml:space="preserve">
<style type="text/css">
	.st0{fill:none;}
	.st1{fill:#878787;}
</style>
<g>
	<g>
		<path class="st0" d="M17.4,16.3c0-0.8-0.5-1.5-1.2-1.7c0.2-0.1,0.5-0.1,0.7-0.1c1.7,0,3.1,1.4,3.1,3.1c0,0.9-0.4,1.7-1,2.3
			l1.6,1.5c0.8-0.9,1.3-2.1,1.3-3.3c0-2.8-2.3-5.1-5.1-5.1c-1.4,0-2.7,0.6-3.6,1.5l3.5,3.2C17.1,17.4,17.4,16.9,17.4,16.3z"/>
		<path class="st1" d="M11.8,18.7l-3-2.8c-1,0.8-1.7,1.4-1.7,1.4s-0.7,0.6,0,1.3c2.3,2.5,4.3,3.8,4.9,4.3c1.3,1.3,3.1,2.1,5,2.1
			c0.5,0,1-0.1,1.4-0.2l-1.9-1.8C14.1,23,12.1,21.1,11.8,18.7z"/>
	</g>
	<path class="st1" d="M26.9,17.3c0,0-2.7-2.1-4.9-4.1c-1.3-1.3-3-2.1-5-2.1c-1.7,0-3.3,0.6-4.6,1.7l0.1-0.1
		c-0.1,0.1-0.2,0.1-0.2,0.2L8.8,9.6l-1.4,1.5l16.3,15.1l1.4-1.5l-2.5-2.3c0.9-0.7,2.5-1.9,4.3-3.8C27.6,17.9,26.9,17.3,26.9,17.3z
		 M21,20.9l-1.6-1.5c0.4-0.5,0.6-1.1,0.6-1.8c0-1.7-1.4-3.1-3.1-3.1c-0.2,0-0.5,0-0.7,0.1c0.7,0.3,1.2,0.9,1.2,1.7
		c0,0.4-0.1,0.7-0.3,1l-3.4-3.2c0.9-0.7,1.9-1.1,3.1-1.1c2.8,0,5.1,2.3,5.1,5.1C21.9,19.1,21.5,20.1,21,20.9z"/>
</g>
</svg>
