<?xml version="1.0" encoding="utf-8"?>
<!-- Generator: Adobe Illustrator 24.0.1, SVG Export Plug-In . SVG Version: 6.00 Build 0)  -->
<svg version="1.1" id="Layer_1" xmlns="http://www.w3.org/2000/svg" xmlns:xlink="http://www.w3.org/1999/xlink" x="0px" y="0px"
	 viewBox="0 0 50 50" style="enable-background:new 0 0 50 50;" xml:space="preserve">
<style type="text/css">
	.st0{fill:none;stroke:#000000;stroke-width:2.7604;stroke-linecap:round;stroke-linejoin:round;stroke-miterlimit:10;}
	.st1{fill-rule:evenodd;clip-rule:evenodd;}
</style>
<path class="st0" d="M16.7,11.4l-7.6-0.2L6.2,45.2c0,0-0.2,2.7,2.7,2.7s31.6,0,32.4,0s2.1-1.2,2.1-2.5s0-3.5,0-3.5h-8.4"/>
<line class="st0" x1="14.6" y1="16.7" x2="19.4" y2="16.7"/>
<line class="st0" x1="30" y1="16.7" x2="34.9" y2="16.7"/>
<polyline class="st0" points="32.9,11.4 40.3,11.4 43.4,41.3 "/>
<line class="st0" x1="19.1" y1="11.7" x2="29.7" y2="11.7"/>
<path class="st0" d="M17.3,15.7c0,0,0-6.4,0-7.1s1-6.8,7.2-6.8s8,4.7,8,8s0,6.4,0,6.4"/>
<g>
	<g>
		<path d="M21.4,38H26c1.2,0,1.9-0.2,1.9-1.3l0-11.4h2.6v11.4c0,1.2-0.4,2.1-1.1,2.7c-0.7,0.6-1.7,1-3,1h-5L21.4,38z"/>
		<path d="M26.6,27.7H22c-1.2,0-1.9,0.2-1.9,1.3l0,11.4h-2.6V29c0-1.2,0.4-2.1,1.1-2.7c0.7-0.6,1.7-1,3-1h5L26.6,27.7z"/>
		<path class="st1" d="M21.8,28.6h4.5c0.4,0,0.7,0.3,0.7,0.7v7c0,0.4-0.3,0.7-0.7,0.7h-4.5c-0.4,0-0.7-0.3-0.7-0.7v-7
			C21.1,28.9,21.4,28.6,21.8,28.6z"/>
		<ellipse class="st1" cx="29.1" cy="22.3" rx="1.6" ry="1.5"/>
	</g>
</g>
</svg>
