<?xml version="1.0" encoding="utf-8"?>
<!-- Generator: Adobe Illustrator 24.0.1, SVG Export Plug-In . SVG Version: 6.00 Build 0)  -->
<svg version="1.1" id="Layer_1" xmlns="http://www.w3.org/2000/svg" xmlns:xlink="http://www.w3.org/1999/xlink" x="0px" y="0px"
	 viewBox="0 0 30 30" style="enable-background:new 0 0 30 30;" xml:space="preserve">
<style type="text/css">
	.st0{fill:#E1251B;}
	.st1{fill:none;stroke:#FFFFFF;stroke-width:0.8632;stroke-miterlimit:10;}
	.st2{fill:none;stroke:#FFFFFF;stroke-width:0.6042;stroke-miterlimit:10;}
	.st3{fill:none;stroke:#FFFFFF;stroke-width:0.6042;stroke-linecap:round;stroke-linejoin:round;stroke-miterlimit:10;}
</style>
<circle class="st0" cx="14.7" cy="15.1" r="14.3"/>
<g>
	<path class="st1" d="M13.4,17.2c0,0,2.7-5.7,2.8-6c0.4-0.8,0.7-1.5-0.4-2c-1.1-0.6-1.6,0.6-1.6,0.6l-3.5,6.8c0,0-0.7,1.1-1.2,0.3
		c-0.5-0.8-1.1-2.8-2.2-2.6c-1,0.2-1.1,1-1.1,1s0.7,1.5,0.7,2.9c0,1.5-1.1,5.6,3.7,7.7s6.8-1.6,7.2-2.2c0.6-0.9,2.7-4.3,1.4-5.1
		L18.4,18"/>
	<path class="st1" d="M17.5,19.4c0,0,1.5-2,0.6-2.5c-0.9-0.6-1.7-1-1.7-1"/>
	<path class="st1" d="M15.6,18c0,0,1.5-2.4,0.7-2.8c-0.7-0.5-1.6-0.9-1.6-0.9"/>
</g>
<g>
	<path class="st2" d="M6.3,8.4c0,0,8.1-6.3,18,0.8"/>
	<polyline class="st2" points="21.5,9.3 24.6,9.5 23.7,6.4 	"/>
	<polyline class="st2" points="9.2,8.4 6,8.7 6.8,5.5 	"/>
</g>
<polyline class="st3" points="11.1,12 9.2,13 8.9,10.8 "/>
<line class="st2" x1="11.7" y1="8.4" x2="9.4" y2="12.5"/>
<polyline class="st3" points="17.9,11 19.8,9.9 20.2,12.2 "/>
<line class="st2" x1="17.3" y1="14.6" x2="19.7" y2="10.4"/>
</svg>
