<?xml version="1.0" encoding="utf-8"?>
<!-- Generator: Adobe Illustrator 24.0.1, SVG Export Plug-In . SVG Version: 6.00 Build 0)  -->
<svg version="1.1" id="Layer_1" xmlns="http://www.w3.org/2000/svg" xmlns:xlink="http://www.w3.org/1999/xlink" x="0px" y="0px"
	 viewBox="0 0 35 35" style="enable-background:new 0 0 35 35;" xml:space="preserve">
<style type="text/css">
	.st0{fill-rule:evenodd;clip-rule:evenodd;fill:#255A9E;}
</style>
<g>
	<g>
		<path class="st0" d="M13.2,18v14.2c0,0.2,0.2,0.4,0.4,0.4h5.3c0.2,0,0.4-0.2,0.4-0.4V17.8H23c0.2,0,0.4-0.1,0.4-0.3l0.4-4.4
			c0-0.2-0.2-0.4-0.4-0.4h-4.2V9.6c0-0.7,0.6-1.3,1.3-1.3h2.9c0.2,0,0.4-0.2,0.4-0.4V3.6c0-0.2-0.2-0.4-0.4-0.4h-5
			c-2.9,0-5.3,2.4-5.3,5.3v4.2h-2.6c-0.2,0-0.4,0.2-0.4,0.4v4.4c0,0.2,0.2,0.4,0.4,0.4h2.6V18z"/>
	</g>
</g>
</svg>
