<?xml version="1.0" encoding="utf-8"?>
<!-- Generator: Adobe Illustrator 24.0.1, SVG Export Plug-In . SVG Version: 6.00 Build 0)  -->
<svg version="1.1" id="Layer_1" xmlns="http://www.w3.org/2000/svg" xmlns:xlink="http://www.w3.org/1999/xlink" x="0px" y="0px"
	 viewBox="0 0 50 50" style="enable-background:new 0 0 50 50;" xml:space="preserve">
<style type="text/css">
	.st0{fill:none;stroke:#000000;stroke-width:0.75;stroke-miterlimit:10;}
</style>
<g>
	<polyline class="st0" points="12.8,26.7 12.8,21.2 24.8,24.6 36.6,21.1 36.6,26.8 	"/>
	<polyline class="st0" points="13,31.2 13,34.8 24.7,38.1 36.6,34.8 36.6,31 	"/>
	<path class="st0" d="M38.2,28.8c0-0.8-0.5-2.3-2.3-2.1c-1.6,0.2-2.8,0.7-2.6,1.6c0.1,0.9,0.5,1.8,1.4,2.3c0.9,0.5,2.7,0.6,3.1,0.1
		S38.2,28.8,38.2,28.8z"/>
	<path class="st0" d="M11.5,28.8c0-0.8,0.5-2.3,2.3-2.1c1.6,0.2,2.8,0.7,2.6,1.6c-0.1,0.9-0.5,1.8-1.4,2.3c-0.9,0.5-2.7,0.6-3.1,0.1
		S11.5,28.8,11.5,28.8z"/>
	<polyline class="st0" points="14.9,22 14.9,18.2 24.7,22.7 34.6,17.9 34.6,21.5 	"/>
	<line class="st0" x1="24.7" y1="38.1" x2="24.7" y2="22.7"/>
	<circle class="st0" cx="24.7" cy="15.3" r="5.8"/>
</g>
</svg>
