<?xml version="1.0" encoding="utf-8"?>
<!-- Generator: Adobe Illustrator 24.0.1, SVG Export Plug-In . SVG Version: 6.00 Build 0)  -->
<svg version="1.1" id="Layer_1" xmlns="http://www.w3.org/2000/svg" xmlns:xlink="http://www.w3.org/1999/xlink" x="0px" y="0px"
	 viewBox="0 0 39 28" style="enable-background:new 0 0 39 28;" xml:space="preserve">
<style type="text/css">
	.st0{fill:#FFFFFF;}
</style>
<path class="st0" d="M30,7.2c-0.7,0.3-1.4,0.5-2.1,0.6c0.3-0.1,0.8-0.7,1-0.9c0.3-0.4,0.6-0.8,0.7-1.3c0,0,0-0.1,0-0.1
	c0,0-0.1,0-0.1,0c-0.8,0.4-1.6,0.7-2.5,1c-0.1,0-0.1,0-0.2,0c-0.1-0.1-0.1-0.2-0.2-0.2c-0.4-0.3-0.8-0.6-1.2-0.8
	c-0.6-0.2-1.2-0.3-1.9-0.3c-0.6,0-1.2,0.2-1.8,0.5c-0.6,0.3-1,0.7-1.4,1.2c-0.4,0.5-0.7,1.1-0.9,1.7c-0.1,0.6-0.1,1.2,0,1.8
	c0,0.1,0,0.1-0.1,0.1c-3.5-0.5-6.4-1.8-8.7-4.4c-0.1-0.1-0.2-0.1-0.2,0c-1,1.5-0.5,4,0.8,5.2c0.2,0.2,0.3,0.3,0.5,0.5
	c-0.1,0-0.9-0.1-1.7-0.5c-0.1-0.1-0.2,0-0.2,0.1c0,0.2,0,0.3,0,0.5c0.2,1.6,1.3,3,2.7,3.6c0.2,0.1,0.4,0.1,0.6,0.2
	c-0.3,0.1-0.7,0.1-1.6,0.1c-0.1,0-0.2,0-0.1,0.2c0.7,2,2.3,2.6,3.5,2.9c0.2,0,0.3,0,0.5,0.1c0,0,0,0,0,0c-0.4,0.6-1.7,1-2.4,1.3
	c-1.1,0.4-2.4,0.6-3.6,0.5c-0.2,0-0.2,0-0.3,0c-0.1,0,0,0.1,0.1,0.1c0.2,0.2,0.5,0.3,0.7,0.4c0.8,0.4,1.6,0.7,2.4,1
	c4.3,1.2,9.2,0.3,12.4-2.9c2.5-2.5,3.4-6,3.4-9.5c0-0.1,0.2-0.2,0.3-0.3c0.7-0.5,1.2-1.1,1.7-1.8C30.1,7.4,30.1,7.3,30,7.2
	C30.1,7.2,30.1,7.2,30,7.2C30.1,7.1,30.1,7.1,30,7.2z"/>
</svg>
