<?xml version="1.0" encoding="utf-8"?>
<!-- Generator: Adobe Illustrator 24.0.1, SVG Export Plug-In . SVG Version: 6.00 Build 0)  -->
<svg version="1.1" id="Layer_1" xmlns="http://www.w3.org/2000/svg" xmlns:xlink="http://www.w3.org/1999/xlink" x="0px" y="0px"
	 viewBox="0 0 42 55" style="enable-background:new 0 0 42 55;" xml:space="preserve">
<style type="text/css">
	.st0{fill:none;stroke:#000000;stroke-miterlimit:10;}
	.st1{fill:none;stroke:#000000;stroke-width:0.84;stroke-miterlimit:10;}
	.st2{fill:#706F6F;}
	.st3{fill:none;stroke:#FFFFFF;stroke-width:0.4116;stroke-linecap:round;stroke-linejoin:round;stroke-miterlimit:10;}
</style>
<path class="st0" d="M6.1,19.4"/>
<g>
	<path class="st1" d="M29.3,51.2L5.6,38.1c-1.2-0.7-2.3-2.3-2.3-3.5V19.5c0-1.2,1-1.7,2.3-1l23.7,13.1c1.2,0.7,2.3,2.3,2.3,3.5v15.1
		C31.5,51.5,30.5,51.9,29.3,51.2z"/>
	<g>
		<ellipse transform="matrix(0.8015 -0.598 0.598 0.8015 -15.2071 15.8082)" class="st2" cx="16.2" cy="30.8" rx="1.7" ry="3"/>
		<path class="st2" d="M12,36.4v-1.5c0-2,1.6-2.7,3.7-1.5l0.9,0.5c2,1.2,3.7,3.8,3.7,5.8v1.6"/>
		<line class="st3" x1="14" y1="35.4" x2="14" y2="37.5"/>
		<line class="st3" x1="18.3" y1="37.9" x2="18.3" y2="40.1"/>
	</g>
	<g>
		<path class="st1" d="M6.7,16.9v-6c0-1.2,1-1.7,2.3-1L32.6,23c1.2,0.7,2.3,2.3,2.3,3.5v15.1c0,1.2-1,1.7-2.3,1"/>
		<g>
			<ellipse transform="matrix(0.8015 -0.598 0.598 0.8015 -9.0835 15.4647)" class="st2" cx="18.8" cy="21.4" rx="1.7" ry="3"/>
			<path class="st2" d="M15.2,23.8c0.7-0.6,1.8-0.6,3.1,0.2l0.9,0.5c1,0.6,1.9,1.6,2.6,2.6"/>
		</g>
	</g>
	<g>
		<path class="st1" d="M10.2,10.3v-6c0-1.2,1-1.7,2.3-1l23.7,13.1c1.2,0.7,2.3,2.3,2.3,3.5V35c0,1.2-1,1.7-2.3,1"/>
		<g>
			<ellipse transform="matrix(0.8015 -0.598 0.598 0.8015 -4.4095 16.2769)" class="st2" cx="22.3" cy="14.8" rx="1.7" ry="3"/>
		</g>
	</g>
</g>
</svg>
