<?xml version="1.0" encoding="utf-8"?>
<!-- Generator: Adobe Illustrator 24.0.1, SVG Export Plug-In . SVG Version: 6.00 Build 0)  -->
<svg version="1.1" id="Layer_1" xmlns="http://www.w3.org/2000/svg" xmlns:xlink="http://www.w3.org/1999/xlink" x="0px" y="0px"
	 viewBox="0 0 15 20" style="enable-background:new 0 0 15 20;" xml:space="preserve">
<style type="text/css">
	.st0{fill:none;stroke:#000000;stroke-width:0.5091;stroke-miterlimit:10;}
</style>
<g>
	<g>
		<path d="M7.3,1.5c-2.8,0-5.1,2.3-5.1,5.1c0,2.9,2.3,4.4,3.7,6.8c1.1,1.8,1.4,3.5,1.4,3.5s0.3-1.7,1.4-3.5c1.4-2.4,3.7-3.6,3.7-6.8
			C12.4,3.7,10.1,1.5,7.3,1.5z M7.3,8.4c-1,0-1.8-0.8-1.8-1.8s0.8-1.8,1.8-1.8s1.8,0.8,1.8,1.8S8.3,8.4,7.3,8.4z"/>
	</g>
	<path class="st0" d="M9.1,15.4c1.8,0.3,3.2,0.9,3.2,1.7c0,1-2.2,1.8-4.9,1.8s-4.9-0.8-4.9-1.8c0-0.8,1.3-1.4,3.2-1.7"/>
</g>
</svg>
