<?xml version="1.0" encoding="utf-8"?>
<!-- Generator: Adobe Illustrator 24.0.1, SVG Export Plug-In . SVG Version: 6.00 Build 0)  -->
<svg version="1.1" id="Layer_1" xmlns="http://www.w3.org/2000/svg" xmlns:xlink="http://www.w3.org/1999/xlink" x="0px" y="0px"
	 viewBox="0 0 50 50" style="enable-background:new 0 0 50 50;" xml:space="preserve">
<style type="text/css">
	.st0{fill:none;stroke:#000000;stroke-width:0.75;stroke-linecap:round;stroke-linejoin:round;stroke-miterlimit:10;}
</style>
<g>
	<path class="st0" d="M16.6,12.8c0,0,0,5.6,0,6.7s-0.9,2.8-2.5,2.8v10.9c0,0,0,1.2-1.1,1.2c-1,0-1-1.2-1-1.2V22.2
		c-1.6,0-2.5-1.7-2.5-2.8s0-6.7,0-6.7"/>
	<line class="st0" x1="11.9" y1="12.7" x2="11.9" y2="18.8"/>
	<line class="st0" x1="14.2" y1="12.7" x2="14.2" y2="18.8"/>
	<path class="st0" d="M37.7,26.6c-1.3,5.3-6,9.2-11.6,9.2c-6.6,0-12-5.4-12-12c0-0.6,0-1.2,0.1-1.8"/>
	<path class="st0" d="M16.6,16.5c2.2-2.8,5.6-4.6,9.4-4.6c4.2,0,8,2.2,10.1,5.5"/>
	<path class="st0" d="M40.3,12.9c0,0-3.9,0.9-4.3,5.5c-0.4,4.6,0.3,6.5,2.1,9c0,0,0,5.5,0,5.8c0,0.4,0.1,1.3,0.9,1.3
		s1.3-0.2,1.3-1.2S40.2,12.9,40.3,12.9z"/>
	<path class="st0" d="M18.8,23.7c0,4,3.3,7.3,7.3,7.3s7.3-3.3,7.3-7.3s-3.3-7.3-7.3-7.3"/>
</g>
</svg>
