<?xml version="1.0" encoding="utf-8"?>
<!-- Generator: Adobe Illustrator 24.0.1, SVG Export Plug-In . SVG Version: 6.00 Build 0)  -->
<svg version="1.1" id="Layer_1" xmlns="http://www.w3.org/2000/svg" xmlns:xlink="http://www.w3.org/1999/xlink" x="0px" y="0px"
	 viewBox="0 0 39 28" style="enable-background:new 0 0 39 28;" xml:space="preserve">
<style type="text/css">
	.st0{fill:none;stroke:#FFFFFF;stroke-width:0.64;stroke-linecap:round;stroke-linejoin:round;stroke-miterlimit:10;}
	.st1{fill:#FFFFFF;}
</style>
<g>
	<g>
		<path class="st0" d="M23.3,4.5h7.8c1.1,0,2,0.9,2,2v15.3"/>
		<path class="st0" d="M6,21.2V6.5c0-1.1,0.9-2,2-2h7.2"/>
		<path class="st0" d="M17.2,23.3c0,0-0.4,1.2,1,1.2c1.4,0,1.7,0,2.2,0c0.5,0,1.6,0,1.6-1.2h13.2c0,0,0.5,3.7-2.7,3.7
			c-3.2,0-24.3,0-25.8,0s-3.1-0.7-3.1-3.7C3.6,23.3,17.5,23,17.2,23.3z"/>
	</g>
	<g>
		<circle class="st0" cx="19.1" cy="4.2" r="3"/>
		<path class="st0" d="M13.5,15v-2.1c0-2.7,2.2-4.9,4.9-4.9h1.2c1.4,0,4.8,0.6,4.8,6.7"/>
		<line class="st0" x1="16.2" y1="12.1" x2="16.2" y2="15"/>
		<line class="st0" x1="21.9" y1="12.1" x2="21.9" y2="15"/>
	</g>
	<g>
		<path class="st1" d="M12.7,20.9l-1.1-3.5h0.6l0.6,2l0.2,0.7c0,0,0.1-0.3,0.2-0.7l0.6-2h0.6l0.5,2l0.2,0.7l0.2-0.7l0.6-2h0.6
			l-1.1,3.5h-0.6l-0.6-2.1L14,18.2l-0.7,2.7H12.7z"/>
		<path class="st1" d="M18.2,20.9l-1.1-3.5h0.6l0.6,2l0.2,0.7c0,0,0.1-0.3,0.2-0.7l0.6-2h0.6l0.5,2l0.2,0.7l0.2-0.7l0.6-2H22
			l-1.1,3.5h-0.6l-0.6-2.1l-0.1-0.6l-0.7,2.7H18.2z"/>
		<path class="st1" d="M23.8,20.9l-1.1-3.5h0.6l0.6,2l0.2,0.7c0,0,0.1-0.3,0.2-0.7l0.6-2h0.6l0.5,2l0.2,0.7l0.2-0.7l0.6-2h0.6
			l-1.1,3.5h-0.6l-0.6-2.1l-0.1-0.6l-0.7,2.7H23.8z"/>
	</g>
</g>
</svg>
