<?xml version="1.0" encoding="utf-8"?>
<!-- Generator: Adobe Illustrator 24.0.1, SVG Export Plug-In . SVG Version: 6.00 Build 0)  -->
<svg version="1.1" id="Layer_1" xmlns="http://www.w3.org/2000/svg" xmlns:xlink="http://www.w3.org/1999/xlink" x="0px" y="0px"
	 viewBox="0 0 50 50" style="enable-background:new 0 0 50 50;" xml:space="preserve">
<style type="text/css">
	.st0{fill:none;stroke:#FFFFFF;stroke-miterlimit:10;}
	.st1{fill:#FFFFFF;}
	.st2{fill-rule:evenodd;clip-rule:evenodd;fill:#FFFFFF;}
</style>
<circle cx="25.4" cy="25.1" r="23.9"/>
<path class="st0" d="M19.1,13.4l-5.5-0.1l-2.1,24.6c0,0-0.1,1.9,1.9,1.9s22.9,0,23.5,0s1.5-0.9,1.5-1.8s0-2.6,0-2.6h-6.1"/>
<line class="st0" x1="17.6" y1="17.2" x2="21.1" y2="17.2"/>
<line class="st0" x1="28.8" y1="17.2" x2="32.3" y2="17.2"/>
<polyline class="st0" points="30.9,13.4 36.3,13.4 38.5,35.1 "/>
<line class="st0" x1="20.9" y1="13.6" x2="28.6" y2="13.6"/>
<path class="st0" d="M19.6,16.5c0,0,0-4.7,0-5.1c0-0.5,0.7-4.9,5.2-4.9s5.8,3.4,5.8,5.8s0,4.7,0,4.7"/>
<g>
	<g>
		<path class="st1" d="M22.5,32.7h3.3c0.9,0,1.3-0.1,1.3-0.9l0-8.3h1.9v8.3c0,0.9-0.3,1.5-0.8,2c-0.5,0.5-1.2,0.7-2.2,0.7h-3.6
			L22.5,32.7z"/>
		<path class="st1" d="M26.4,25.2H23c-0.9,0-1.3,0.1-1.3,0.9l0,8.3h-1.9v-8.3c0-0.9,0.3-1.5,0.8-2c0.5-0.5,1.2-0.7,2.2-0.7h3.6
			L26.4,25.2z"/>
		<path class="st2" d="M22.9,25.9h3.2c0.3,0,0.5,0.2,0.5,0.5v5.1c0,0.3-0.2,0.5-0.5,0.5h-3.2c-0.3,0-0.5-0.2-0.5-0.5v-5.1
			C22.4,26.1,22.6,25.9,22.9,25.9z"/>
		<ellipse class="st2" cx="28.2" cy="21.3" rx="1.1" ry="1.1"/>
	</g>
</g>
</svg>
