<?xml version="1.0" encoding="utf-8"?>
<!-- Generator: Adobe Illustrator 24.0.1, SVG Export Plug-In . SVG Version: 6.00 Build 0)  -->
<svg version="1.1" id="Layer_1" xmlns="http://www.w3.org/2000/svg" xmlns:xlink="http://www.w3.org/1999/xlink" x="0px" y="0px"
	 viewBox="0 0 42 42" style="enable-background:new 0 0 42 42;" xml:space="preserve">
<style type="text/css">
	.st0{fill:none;stroke:#706F6F;stroke-width:0.7;stroke-linecap:round;stroke-linejoin:round;stroke-miterlimit:10;}
	.st1{fill:#706F6F;}
	.st2{fill:none;stroke:#FFFFFF;stroke-width:0.7;stroke-linecap:round;stroke-linejoin:round;stroke-miterlimit:10;}
</style>
<g>
	<path class="st0" d="M9.5,26.2v7.7L6,38.4h29.8c2.2,0,3.9-1.8,3.9-3.9v-26c0-2.2-1.8-4-4-3.9L13.4,5.1c-2.1,0-3.9,1.8-3.9,3.9v4.3"
		/>
	<circle class="st1" cx="24.3" cy="11.5" r="3.9"/>
	<path class="st1" d="M17.3,25.1v-2.6c0-3.4,2.8-6.2,6.2-6.2H25c3.4,0,6.2,2.8,6.2,6.2v2.8"/>
	<line class="st2" x1="20.6" y1="21.4" x2="20.6" y2="25.1"/>
	<line class="st2" x1="27.9" y1="21.4" x2="27.9" y2="25.1"/>
	<line class="st0" x1="16.3" y1="29.5" x2="33.9" y2="29.5"/>
	<line class="st0" x1="2" y1="14.5" x2="13.9" y2="14.5"/>
	<line class="st0" x1="2" y1="25.8" x2="13.9" y2="25.8"/>
	<line class="st0" x1="3.8" y1="17.3" x2="15.7" y2="17.3"/>
	<line class="st0" x1="3.8" y1="22.7" x2="15.7" y2="22.7"/>
	<line class="st0" x1="16.3" y1="32.1" x2="33.9" y2="32.1"/>
	<line class="st0" x1="16.3" y1="34.7" x2="33.9" y2="34.7"/>
	<circle class="st0" cx="13.4" cy="29.8" r="0.9"/>
	<circle class="st0" cx="13.4" cy="33.3" r="0.9"/>
	<line class="st0" x1="5.5" y1="20.1" x2="17.4" y2="20.1"/>
</g>
</svg>
