<?xml version="1.0" encoding="utf-8"?>
<!-- Generator: Adobe Illustrator 24.0.1, SVG Export Plug-In . SVG Version: 6.00 Build 0)  -->
<svg version="1.1" id="Layer_1" xmlns="http://www.w3.org/2000/svg" xmlns:xlink="http://www.w3.org/1999/xlink" x="0px" y="0px"
	 viewBox="0 0 35 35" style="enable-background:new 0 0 35 35;" xml:space="preserve">
<style type="text/css">
	.st0{fill:#4B78BC;}
	.st1{fill:#E83D30;}
	.st2{fill:#FBBA10;}
	.st3{fill:#3AAC4E;}
</style>
<g>
	<path class="st0" d="M32,17.9c0-1-0.1-1.9-0.3-2.8h-1.2h-4.5h-8.3v5.6h8.5c-0.5,1.9-1.7,3.6-3.3,4.8l4.4,3.5
		C30.2,26.2,32,22.3,32,17.9z"/>
	<path class="st1" d="M17.9,9.1c2.1,0,4,0.8,5.5,2.1l4-4.1c-2.5-2.5-5.9-4-9.8-4C12.1,3,7,6.4,4.5,11.3l5,3.8
		C10.7,11.6,14.1,9.1,17.9,9.1z"/>
	<path class="st2" d="M4.6,24.7l4.8-3.8c-0.3-0.9-0.5-1.8-0.5-2.8c0-1.1,0.2-2.1,0.5-3l-5-3.8c-1,2-1.6,4.2-1.6,6.6
		C2.9,20.3,3.5,22.7,4.6,24.7z"/>
	<path class="st3" d="M9.4,20.9l-4.8,3.8c2.5,4.8,7.5,8,13.2,8c3.7,0,7.1-1.4,9.6-3.8L23,25.5c-1.4,1-3.1,1.7-5,1.7
		C14,27.1,10.6,24.5,9.4,20.9z"/>
</g>
</svg>
