<?xml version="1.0" encoding="utf-8"?>
<!-- Generator: Adobe Illustrator 24.0.1, SVG Export Plug-In . SVG Version: 6.00 Build 0)  -->
<svg version="1.1" id="Layer_1" xmlns="http://www.w3.org/2000/svg" xmlns:xlink="http://www.w3.org/1999/xlink" x="0px" y="0px"
	 viewBox="0 0 30 30" style="enable-background:new 0 0 30 30;" xml:space="preserve">
<style type="text/css">
	.st0{fill:#FF4F18;}
	.st1{fill:none;stroke:#FFFFFF;stroke-width:0.9221;stroke-linecap:round;stroke-linejoin:round;stroke-miterlimit:10;}
	.st2{fill:#FFFFFF;stroke:#FF4F18;stroke-width:0.9221;stroke-linecap:round;stroke-linejoin:round;stroke-miterlimit:10;}
</style>
<circle class="st0" cx="15" cy="15" r="14.7"/>
<path class="st1" d="M7,7.1c-2,1.9-3.2,4.7-3.2,7.6c0,5.9,4.8,10.7,10.7,10.7s10.7-4.8,10.7-10.7c0-3-1.2-5.7-3.2-7.6"/>
<path class="st1" d="M4.3,18.1c0,0,0.9-1.8,2.4-2s4.1-0.6,4.1-0.6s1.2-0.2,1.2-2.3"/>
<path class="st1" d="M24.6,18.1c0,0-0.9-1.8-2.4-2s-4.1-0.6-4.1-0.6S17,15.2,17,13.2"/>
<path class="st1" d="M19.4,6.9v1.6c0,2.7-2.2,4.8-4.8,4.8s-4.8-2.2-4.8-4.8V6.3"/>
<path class="st1" d="M10.5,5.6c0,0,2.7,0.6,4.8-3.5"/>
<path class="st1" d="M15.7,2.9c0,0,2.7,0.7,2.7,3.4"/>
<path class="st1" d="M11.8,7.5c0,0,1-0.9,1.9,0.2"/>
<path class="st1" d="M17.4,7.5c0,0-1-0.9-1.9,0.2"/>
<path class="st1" d="M13.2,10.4c0.9,0.5,1.9,0.7,2.8,0"/>
<polygon class="st2" points="23.2,20.6 25.9,21 23.9,22.9 24.3,25.6 21.9,24.3 19.4,25.5 19.9,22.8 18,20.8 20.7,20.5 22,18.1 "/>
<polyline class="st1" points="9.4,15.8 14.1,20.5 19.9,16 "/>
</svg>
