<?xml version="1.0" encoding="utf-8"?>
<!-- Generator: Adobe Illustrator 24.0.1, SVG Export Plug-In . SVG Version: 6.00 Build 0)  -->
<svg version="1.1" id="Layer_1" xmlns="http://www.w3.org/2000/svg" xmlns:xlink="http://www.w3.org/1999/xlink" x="0px" y="0px"
	 viewBox="0 0 39 28" style="enable-background:new 0 0 39 28;" xml:space="preserve">
<style type="text/css">
	.st0{fill:#FFFFFF;}
</style>
<g>
	<g>
		<g>
			<g>
				<path class="st0" d="M29.8,16.1v6.6c0,0.2-0.1,0.3-0.3,0.3h-3.4c-0.2,0-0.3-0.1-0.3-0.3v-6.2c0-1.6-0.6-2.7-2-2.7
					c-1.1,0-1.8,0.7-2.1,1.5c-0.1,0.3-0.1,0.6-0.1,1v6.5c0,0.2-0.1,0.3-0.3,0.3h-3.4c-0.2,0-0.3-0.1-0.3-0.3c0-1.6,0-9.6,0-11.5
					c0-0.2,0.1-0.3,0.3-0.3h3.4c0.2,0,0.3,0.1,0.3,0.3v1.4c0,0,0,0,0,0h0v0c0.5-0.8,1.5-2,3.6-2C27.9,10.7,29.8,12.4,29.8,16.1
					L29.8,16.1z M11.6,23.1H15c0.2,0,0.3-0.1,0.3-0.3V11.3c0-0.2-0.1-0.3-0.3-0.3h-3.4c-0.2,0-0.3,0.1-0.3,0.3v11.5
					C11.3,22.9,11.5,23.1,11.6,23.1z"/>
			</g>
		</g>
	</g>
	<g>
		<path class="st0" d="M15.4,7.3c0,1.2-1,2.2-2.2,2.2s-2.2-1-2.2-2.2s1-2.2,2.2-2.2S15.4,6.1,15.4,7.3z"/>
	</g>
</g>
</svg>
