<?xml version="1.0" encoding="utf-8"?>
<!-- Generator: Adobe Illustrator 24.0.1, SVG Export Plug-In . SVG Version: 6.00 Build 0)  -->
<svg version="1.1" id="Layer_1" xmlns="http://www.w3.org/2000/svg" xmlns:xlink="http://www.w3.org/1999/xlink" x="0px" y="0px"
	 viewBox="0 0 50 50" style="enable-background:new 0 0 50 50;" xml:space="preserve">
<style type="text/css">
	.st0{fill:none;stroke:#000000;stroke-width:0.9;stroke-miterlimit:10;}
</style>
<g>
	<path class="st0" d="M20,24.9c0,0-3.2-2.6-4.3-4.7s-2.2-4.9-3.7-4.6c-1.5,0.3-2.6,2.7-0.2,7.2s5.2,7.5,7.4,8.8v9.7
		c0,0-13-9.8-14.8-16.5S4.8,8.3,14.8,8.3c8.5,0,10.5,5.1,10.5,5.1s5.1-6.5,12.6-4.7S48,19,46.3,23.7s-6.2,10.3-10,12.7
		c0,0,0.2-8.3-4.4-8.3"/>
	<line class="st0" x1="30.6" y1="35.1" x2="30.6" y2="39.9"/>
	<circle class="st0" cx="26.8" cy="21.3" r="5.2"/>
</g>
</svg>
