<?xml version="1.0" encoding="utf-8"?>
<!-- Generator: Adobe Illustrator 24.0.1, SVG Export Plug-In . SVG Version: 6.00 Build 0)  -->
<svg version="1.1" id="Layer_1" xmlns="http://www.w3.org/2000/svg" xmlns:xlink="http://www.w3.org/1999/xlink" x="0px" y="0px"
	 viewBox="0 0 50 50" style="enable-background:new 0 0 50 50;" xml:space="preserve">
<style type="text/css">
	.st0{fill:none;stroke:#000000;stroke-width:0.75;stroke-miterlimit:10;}
</style>
<g>
	<path class="st0" d="M12.4,24.1v12.5c0,1.6,1.3,2.9,2.9,2.9h20.3c1.6,0,2.9-1.3,2.9-2.9V23.5"/>
	<line class="st0" x1="29.8" y1="24.1" x2="29.8" y2="39.6"/>
	<line class="st0" x1="13" y1="35.7" x2="30" y2="35.7"/>
	<line class="st0" x1="21.2" y1="27.1" x2="16.1" y2="32.2"/>
	<line class="st0" x1="18" y1="26.4" x2="15.7" y2="28.7"/>
	<line class="st0" x1="29.8" y1="31" x2="31.7" y2="31"/>
	<path class="st0" d="M9.8,19.9h31.2l-4.3-7.6c0,0-0.6-1.3-2-1.3s-16.8,0-17.5,0s-2,0.3-2.4,0.9C14.3,12.4,9.8,19.9,9.8,19.9z"/>
	<line class="st0" x1="19.8" y1="11.3" x2="17.5" y2="19.5"/>
	<line class="st0" x1="31.1" y1="11.3" x2="33.4" y2="19.5"/>
	<line class="st0" x1="25.5" y1="11.1" x2="25.5" y2="19.5"/>
	<path class="st0" d="M9.8,19.6c0,2.2,1.7,4,3.8,4s3.8-1.8,3.8-4"/>
	<path class="st0" d="M33.5,19.6c0,2.2,1.7,4,3.8,4c2.1,0,3.8-1.8,3.8-4"/>
	<path class="st0" d="M25.6,19.6c0,2.2,1.7,4,3.8,4s3.8-1.8,3.8-4"/>
	<path class="st0" d="M17.9,19.6c0,2.2,1.7,4,3.8,4s3.8-1.8,3.8-4"/>
</g>
</svg>
