<?xml version="1.0" encoding="utf-8"?>
<!-- Generator: Adobe Illustrator 24.0.1, SVG Export Plug-In . SVG Version: 6.00 Build 0)  -->
<svg version="1.1" id="Layer_1" xmlns="http://www.w3.org/2000/svg" xmlns:xlink="http://www.w3.org/1999/xlink" x="0px" y="0px"
	 viewBox="0 0 39 28" style="enable-background:new 0 0 39 28;" xml:space="preserve">
<style type="text/css">
	.st0{fill:#FFFFFF;}
</style>
<path class="st0" d="M8.1,13.1c0,0,10.3-4.2,13.9-5.7c1.4-0.6,6-2.5,6-2.5S30.2,4,30,6c-0.1,0.8-0.5,3.8-1,6.9
	c-0.7,4.5-1.5,9.4-1.5,9.4s-0.1,1.4-1.1,1.6c-1,0.2-2.7-0.8-3-1.1c-0.2-0.2-4.5-2.9-6-4.2c-0.4-0.4-0.9-1.1,0.1-1.9
	c2.1-2,4.7-4.4,6.3-6c0.7-0.7,1.4-2.4-1.6-0.4c-4.2,2.9-8.4,5.7-8.4,5.7s-1,0.6-2.7,0.1c-1.8-0.5-3.9-1.3-3.9-1.3S5.6,14,8.1,13.1
	L8.1,13.1z"/>
</svg>
