<?xml version="1.0" encoding="utf-8"?>
<!-- Generator: Adobe Illustrator 24.0.1, SVG Export Plug-In . SVG Version: 6.00 Build 0)  -->
<svg version="1.1" id="Layer_1" xmlns="http://www.w3.org/2000/svg" xmlns:xlink="http://www.w3.org/1999/xlink" x="0px" y="0px"
	 viewBox="0 0 39 28" style="enable-background:new 0 0 39 28;" xml:space="preserve">
<style type="text/css">
	.st0{fill:#FFFFFF;}
	.st1{fill-rule:evenodd;clip-rule:evenodd;fill:#FFFFFF;}
</style>
<g>
	<path class="st0" d="M17.2,22.6h5.3c1.4,0,2.1-0.2,2.1-1.5l0-13.2h3v13.2c0,1.4-0.4,2.4-1.2,3.2c-0.8,0.7-2,1.1-3.5,1.1h-5.7
		L17.2,22.6z"/>
	<path class="st0" d="M23.3,10.8H18c-1.4,0-2.1,0.2-2.1,1.5l0,13.2h-3V12.2c0-1.4,0.4-2.4,1.2-3.2c0.8-0.7,2-1.1,3.5-1.1h5.7
		L23.3,10.8z"/>
	<path class="st1" d="M17.8,11.7h5.2c0.4,0,0.8,0.3,0.8,0.8v8.1c0,0.4-0.3,0.8-0.8,0.8h-5.2c-0.4,0-0.8-0.3-0.8-0.8v-8.1
		C17,12.1,17.3,11.7,17.8,11.7z"/>
	<ellipse class="st1" cx="26.2" cy="4.5" rx="1.8" ry="1.7"/>
</g>
</svg>
