<?xml version="1.0" encoding="utf-8"?>
<!-- Generator: Adobe Illustrator 24.0.1, SVG Export Plug-In . SVG Version: 6.00 Build 0)  -->
<svg version="1.1" id="Layer_1" xmlns="http://www.w3.org/2000/svg" xmlns:xlink="http://www.w3.org/1999/xlink" x="0px" y="0px"
	 viewBox="0 0 28 28" style="enable-background:new 0 0 28 28;" xml:space="preserve">
<style type="text/css">
	.st0{fill-rule:evenodd;clip-rule:evenodd;fill:#FFFFFF;}
</style>
<g>
	<path class="st0" d="M21.1,17.4c-0.4-0.2-2.4-1.2-2.7-1.3c-0.4-0.1-0.6-0.2-0.9,0.2c-0.3,0.4-1,1.3-1.3,1.6
		c-0.2,0.3-0.5,0.3-0.9,0.1c-0.4-0.2-1.7-0.6-3.2-2.1c-1.2-1.1-2-2.5-2.2-2.9c-0.2-0.4,0-0.6,0.2-0.8c0.2-0.2,0.4-0.5,0.6-0.7
		c0.2-0.2,0.3-0.4,0.4-0.7c0.1-0.3,0.1-0.5,0-0.7C10.9,9.9,10.1,7.8,9.8,7C9.4,6.2,9.1,6.3,8.9,6.3c-0.2,0-0.5,0-0.8,0
		C7.8,6.3,7.4,6.4,7,6.8c-0.4,0.4-1.4,1.4-1.4,3.5c0,2,1.4,4,1.6,4.3c0.2,0.3,2.8,4.5,6.9,6.3c1,0.4,1.7,0.7,2.3,0.9
		c1,0.3,1.8,0.3,2.5,0.2c0.8-0.1,2.4-1,2.7-2c0.3-1,0.3-1.8,0.2-2C21.8,17.7,21.5,17.6,21.1,17.4"/>
</g>
</svg>
