<?xml version="1.0" encoding="utf-8"?>
<!-- Generator: Adobe Illustrator 24.0.1, SVG Export Plug-In . SVG Version: 6.00 Build 0)  -->
<svg version="1.1" id="Layer_1" xmlns="http://www.w3.org/2000/svg" xmlns:xlink="http://www.w3.org/1999/xlink" x="0px" y="0px"
	 viewBox="0 0 50 50" style="enable-background:new 0 0 50 50;" xml:space="preserve">
<style type="text/css">
	.st0{fill:none;stroke:#000000;stroke-width:0.75;stroke-miterlimit:10;}
</style>
<g>
	<path class="st0" d="M25.2,19.4c0,0,8.4,0.1,9.9,0.1c1,0,3.8,0.9,3.8,4.9c0,3.3,0,5.3,0,5.3s0.2,2.5-3.7,2.5s-20.8,0-21.8,0
		s-3.7-0.4-3.7-2.5s0-3.9,0-4.6c0-0.8,0.4-5.8,4.9-5.8S25.2,19.4,25.2,19.4z"/>
	<path class="st0" d="M9.8,28.1c0,0,0,6,0,6.8c0,0.9,0.8,1.6,1.4,1.6s2,0,2.3,0s1.5-0.1,1.5-1.1s0-3.3,0-3.3"/>
	<path class="st0" d="M38.9,28.1c0,0,0,6,0,6.8c0,0.9-0.8,1.6-1.4,1.6s-2,0-2.3,0s-1.5-0.1-1.5-1.1s0-3.3,0-3.3"/>
	<path class="st0" d="M12.2,20.1l2.8-6.8c0,0,0.6-2.2,4-2.2s9.7,0,10.9,0s3.6-0.1,4.6,2.7c1.1,2.8,2.1,6.1,2.1,6.1"/>
	<path class="st0" d="M37,20.2l0.7-1.3v-1.9c0,0,0.3-1.1,1.5-1.1c1.3,0,1.6,0.7,1.6,1.3s0,1.4,0,1.4s-0.3,0.5-1,0.5s-1.7,0-1.7,0"/>
	<path class="st0" d="M12,20.2L11.3,19v-1.9c0,0-0.3-1.1-1.5-1.1s-1.6,0.7-1.6,1.3s0,1.4,0,1.4s0.3,0.5,1,0.5c0.7,0,1.7,0,1.7,0"/>
	<path class="st0" d="M16.3,27.5h-1.9c-0.6,0-1.1-0.5-1.1-1.1v-1.6c0-0.6,0.5-1.1,1.1-1.1h2.4c0.9,0,1.5,0.7,1.5,1.5v0.3
		C18.3,26.6,17.4,27.5,16.3,27.5z"/>
	<path class="st0" d="M32.9,27.5h1.9c0.6,0,1.1-0.5,1.1-1.1v-1.6c0-0.6-0.5-1.1-1.1-1.1h-2.4c-0.9,0-1.5,0.7-1.5,1.5v0.3
		C30.9,26.6,31.8,27.5,32.9,27.5z"/>
	<line class="st0" x1="28.3" y1="24.4" x2="20.5" y2="24.4"/>
	<line class="st0" x1="28.3" y1="26.7" x2="20.5" y2="26.7"/>
</g>
</svg>
