<?xml version="1.0" encoding="utf-8"?>
<!-- Generator: Adobe Illustrator 24.0.1, SVG Export Plug-In . SVG Version: 6.00 Build 0)  -->
<svg version="1.1" id="Layer_1" xmlns="http://www.w3.org/2000/svg" xmlns:xlink="http://www.w3.org/1999/xlink" x="0px" y="0px"
	 viewBox="0 0 35 35" style="enable-background:new 0 0 35 35;" xml:space="preserve">
<style type="text/css">
	.st0{fill:#575756;}
</style>
<g>
	<g>
		<path class="st0" d="M26.9,17.1c0,0-2.7-2.1-4.9-4.1c-1.3-1.3-3-2.1-5-2.1c-1.7,0-3.3,0.6-4.6,1.7l0.1-0.1
			c-2.3,2.1-5.5,4.7-5.5,4.7s-0.7,0.6,0,1.3c2.3,2.5,4.3,3.8,4.9,4.3c1.3,1.3,3.1,2.1,5,2.1c2,0,3.9-0.9,5.2-2.3
			c0.8-0.6,2.6-1.9,4.7-4.1C27.6,17.7,26.9,17.1,26.9,17.1z M16.8,23c-2.8,0-5.1-2.3-5.1-5.1s2.3-5.1,5.1-5.1s5.1,2.3,5.1,5.1
			S19.6,23,16.8,23z"/>
	</g>
	<g>
		<path class="st0" d="M16.9,14.3c-0.2,0-0.5,0-0.7,0.1c0.7,0.3,1.2,0.9,1.2,1.7c0,1-0.8,1.9-1.9,1.9c-0.8,0-1.5-0.5-1.7-1.2
			c0,0.2-0.1,0.4-0.1,0.6c0,1.7,1.4,3.1,3.1,3.1s3.1-1.4,3.1-3.1C20,15.7,18.6,14.3,16.9,14.3z"/>
	</g>
</g>
</svg>
