<?xml version="1.0" encoding="utf-8"?>
<!-- Generator: Adobe Illustrator 24.0.1, SVG Export Plug-In . SVG Version: 6.00 Build 0)  -->
<svg version="1.1" id="Layer_1" xmlns="http://www.w3.org/2000/svg" xmlns:xlink="http://www.w3.org/1999/xlink" x="0px" y="0px"
	 viewBox="0 0 39 28" style="enable-background:new 0 0 39 28;" xml:space="preserve">
<style type="text/css">
	.st0{opacity:0.8;fill-rule:evenodd;clip-rule:evenodd;fill:#FFFFFF;}
	.st1{fill-rule:evenodd;clip-rule:evenodd;fill:#FFFFFF;}
</style>
<g>
	<path class="st0" d="M24.7,10.7c1.6,1.1,3.5,1.8,5.6,1.8v-4c-0.4,0-0.8,0-1.2-0.1v3.2c-2.1,0-4-0.7-5.6-1.8v8.2
		c0,4.1-3.3,7.4-7.4,7.4c-1.5,0-3-0.5-4.1-1.3c1.4,1.4,3.2,2.2,5.3,2.2c4.1,0,7.4-3.3,7.4-7.4L24.7,10.7L24.7,10.7z M26.2,6.6
		c-0.8-0.9-1.3-2-1.5-3.3V2.8h-1.1C23.9,4.4,24.8,5.8,26.2,6.6L26.2,6.6z M14.6,21c-0.5-0.6-0.7-1.3-0.7-2.1c0-1.9,1.5-3.4,3.4-3.4
		c0.4,0,0.7,0.1,1,0.2v-4.1c-0.4-0.1-0.8-0.1-1.2-0.1v3.2c-0.3-0.1-0.7-0.2-1-0.2c-1.9,0-3.4,1.5-3.4,3.4
		C12.7,19.3,13.4,20.4,14.6,21z"/>
	<path class="st1" d="M23.5,9.7c1.6,1.1,3.5,1.8,5.6,1.8V8.4c-1.2-0.2-2.2-0.9-3-1.7c-1.3-0.8-2.3-2.2-2.6-3.8h-2.9v16.1
		c0,1.9-1.5,3.4-3.4,3.4c-1.1,0-2.1-0.5-2.7-1.3c-1.1-0.6-1.9-1.7-1.9-3c0-1.9,1.5-3.4,3.4-3.4c0.4,0,0.7,0.1,1,0.2v-3.2
		c-4,0.1-7.3,3.4-7.3,7.4c0,2,0.8,3.9,2.1,5.2c1.2,0.8,2.6,1.3,4.1,1.3c4.1,0,7.4-3.3,7.4-7.4V9.7z"/>
	<path class="st1" d="M29.1,8.4V7.5c-1.1,0-2.1-0.3-3-0.9C27,7.5,28,8.1,29.1,8.4z M23.6,2.8c0-0.2,0-0.3-0.1-0.5V1.9h-4v16.1
		c0,1.9-1.5,3.4-3.4,3.4c-0.6,0-1.1-0.1-1.5-0.4c0.6,0.8,1.6,1.3,2.7,1.3c1.9,0,3.4-1.5,3.4-3.4V2.8H23.6z M17.1,11.5v-0.9
		c-0.3,0-0.7-0.1-1-0.1c-4.1,0-7.4,3.3-7.4,7.4c0,2.6,1.3,4.8,3.3,6.2c-1.3-1.3-2.1-3.2-2.1-5.2C9.8,14.9,13.1,11.6,17.1,11.5
		L17.1,11.5z"/>
</g>
</svg>
