<?xml version="1.0" encoding="utf-8"?>
<!-- Generator: Adobe Illustrator 24.0.1, SVG Export Plug-In . SVG Version: 6.00 Build 0)  -->
<svg version="1.1" id="Layer_1" xmlns="http://www.w3.org/2000/svg" xmlns:xlink="http://www.w3.org/1999/xlink" x="0px" y="0px"
	 viewBox="0 0 50 50" style="enable-background:new 0 0 50 50;" xml:space="preserve">
<style type="text/css">
	.st0{fill:none;stroke:#000000;stroke-width:0.75;stroke-linecap:round;stroke-linejoin:round;stroke-miterlimit:10;}
</style>
<g>
	<line class="st0" x1="19.5" y1="42.6" x2="19.5" y2="25.7"/>
	<line class="st0" x1="26.7" y1="42.6" x2="26.7" y2="25.7"/>
	<line class="st0" x1="37.6" y1="37" x2="37.6" y2="22.9"/>
	<line class="st0" x1="10.6" y1="37" x2="10.6" y2="22.9"/>
	<path class="st0" d="M8.6,28.5c0,0-1.5-1.5-1.5-2.8s0-3.8,0-4.7c0-0.9,1.9-3.4,4.5-3.4s4.5,0,4.5,0"/>
	<path class="st0" d="M40.4,31.3c0,0,1.5-1.5,1.5-2.8s0-6.6,0-7.5c0-0.9-1.9-3.4-4.5-3.4s-4.5,0-4.5,0l-2.6,1.1"/>
	<path class="st0" d="M17.2,36c0,0-1.9-0.6-1.9-2.8s0-6.2,0-7.7c0-1.5,1.6-5.7,4-6.4c4.5-1.2,7.9,0,7.9,0c2.6,0,4,4.9,4,6.4
		c0,1.5,0,5.5,0,7.7S29.3,36,29.3,36"/>
	<circle class="st0" cx="13.3" cy="12.3" r="2.4"/>
	<circle class="st0" cx="34.6" cy="12.3" r="2.4"/>
	<circle class="st0" cx="23.3" cy="12.3" r="3.5"/>
</g>
</svg>
