<?xml version="1.0" encoding="utf-8"?>
<!-- Generator: Adobe Illustrator 24.0.1, SVG Export Plug-In . SVG Version: 6.00 Build 0)  -->
<svg version="1.1" id="Layer_1" xmlns="http://www.w3.org/2000/svg" xmlns:xlink="http://www.w3.org/1999/xlink" x="0px" y="0px"
	 viewBox="0 0 39 28" style="enable-background:new 0 0 39 28;" xml:space="preserve">
<style type="text/css">
	.st0{fill:#FFFFFF;}
</style>
<g>
	<path class="st0" d="M25.2,7.2c-0.7,0-1.3,0.6-1.3,1.3c0,0.7,0.6,1.3,1.3,1.3c0.7,0,1.3-0.6,1.3-1.3C26.4,7.8,25.8,7.2,25.2,7.2z"
		/>
	<path class="st0" d="M19.6,8.8c-2.9,0-5.3,2.4-5.3,5.3c0,2.9,2.4,5.3,5.3,5.3s5.3-2.4,5.3-5.3C24.8,11.2,22.5,8.8,19.6,8.8z
		 M19.6,17.5c-1.9,0-3.4-1.5-3.4-3.4c0-1.9,1.5-3.4,3.4-3.4c1.9,0,3.4,1.5,3.4,3.4C23,16,21.4,17.5,19.6,17.5z"/>
	<path class="st0" d="M23.8,24.8h-8.5c-3.5,0-6.4-2.9-6.4-6.4V9.8c0-3.5,2.9-6.4,6.4-6.4h8.5c3.5,0,6.4,2.9,6.4,6.4v8.5
		C30.2,21.9,27.3,24.8,23.8,24.8z M15.2,5.4c-2.4,0-4.4,2-4.4,4.4v8.5c0,2.4,2,4.4,4.4,4.4h8.5c2.4,0,4.4-2,4.4-4.4V9.8
		c0-2.4-2-4.4-4.4-4.4H15.2z"/>
</g>
</svg>
