<?xml version="1.0" encoding="utf-8"?>
<!-- Generator: Adobe Illustrator 24.0.1, SVG Export Plug-In . SVG Version: 6.00 Build 0)  -->
<svg version="1.1" id="Layer_1" xmlns="http://www.w3.org/2000/svg" xmlns:xlink="http://www.w3.org/1999/xlink" x="0px" y="0px"
	 viewBox="0 0 35 35" style="enable-background:new 0 0 35 35;" xml:space="preserve">
<style type="text/css">
	.st0{fill-rule:evenodd;clip-rule:evenodd;fill:#999999;}
</style>
<g>
	<path class="st0" d="M18.2,5.8c1.9-2.5,4.6-2.5,4.6-2.5s0.4,2.4-1.5,4.7c-2,2.4-4.3,2-4.3,2S16.5,8.1,18.2,5.8z"/>
	<path class="st0" d="M17.2,11.7c1,0,2.8-1.4,5.2-1.4c4.1,0,5.7,2.9,5.7,2.9S25,14.8,25,18.8c0,4.4,3.9,5.9,3.9,5.9
		s-2.7,7.7-6.5,7.7c-1.7,0-3-1.1-4.8-1.1c-1.8,0-3.6,1.2-4.8,1.2c-3.4,0-7.7-7.3-7.7-13.2c0-5.8,3.6-8.9,7-8.9
		C14.3,10.4,16.1,11.7,17.2,11.7z"/>
</g>
</svg>
