<?xml version="1.0" encoding="utf-8"?>
<!-- Generator: Adobe Illustrator 24.0.1, SVG Export Plug-In . SVG Version: 6.00 Build 0)  -->
<svg version="1.1" id="Layer_1" xmlns="http://www.w3.org/2000/svg" xmlns:xlink="http://www.w3.org/1999/xlink" x="0px" y="0px"
	 viewBox="0 0 30 25" style="enable-background:new 0 0 30 25;" xml:space="preserve">
<style type="text/css">
	.st0{fill:none;stroke:#000000;stroke-width:0.75;stroke-miterlimit:10;}
	.st1{fill:none;stroke:#000000;stroke-width:2;stroke-linecap:round;stroke-linejoin:round;stroke-miterlimit:10;}
</style>
<g>
	<path d="M9.3,14.8h-4c-1,0-1.8-0.8-1.8-1.8V4.5c0-1,0.8-1.8,1.8-1.8H14c1,0,1.8,0.8,1.8,1.8v4.3l-5.4,0.1c-1.3,0-1.1,1.5-1.1,1.5
		V14.8"/>
	<path class="st0" d="M17.3,20.7H11c-1,0-1.8-0.8-1.8-1.8v-8.6c0-1,0.8-1.8,1.8-1.8h8.8c1,0,1.8,0.8,1.8,1.8v7.6"/>
	<polyline class="st1" points="18.6,18.9 21,21.4 28,14.4 	"/>
</g>
</svg>
